<svg width="29" height="29" viewBox="0 0 29 29" fill="none" xmlns="http://www.w3.org/2000/svg">
<path d="M11.9069 0.257181C9.9054 0.627056 7.96793 1.41512 6.30267 2.55694L5.61414 3.00725L7.55164 5.3392C8.60844 6.60973 9.53714 7.65508 9.58516 7.639C9.64923 7.639 10.1776 7.39775 10.7701 7.10826C11.3625 6.81878 12.2912 6.49714 12.8196 6.40063L13.7804 6.20765V0.0159302L13.4281 0.0320088C13.2199 0.0320088 12.5474 0.144595 11.9069 0.257181Z" fill="#1D65FF"/>
<path d="M15.0612 6.20775L16.022 6.40073C16.5504 6.49724 17.4791 6.81888 18.0716 7.10836C18.664 7.39785 19.1924 7.6391 19.2405 7.6391C19.3045 7.65518 20.2172 6.60982 21.29 5.3393L23.2275 3.02346L22.4108 2.46057C20.6175 1.2544 18.2477 0.385943 15.99 0.112537L15.0612 -4.95911e-05V6.20775Z" fill="#1D65FF"/>
<path d="M3.74091 4.79252C2.23577 6.56154 1.25902 8.2663 0.666574 10.2123C0.474428 10.8234 0.346329 11.338 0.362341 11.3541C0.506451 11.4827 6.27084 12.3995 6.41495 12.319C6.49499 12.2708 6.57506 12.1261 6.57506 12.0296C6.57506 11.6114 7.53578 9.82627 8.09621 9.19906L8.68866 8.5397L6.75119 6.20775C5.67839 4.92115 4.73368 3.87579 4.66961 3.87579C4.58957 3.87579 4.17325 4.29394 3.74091 4.79252Z" fill="#1D65FF"/>
<path d="M22.1066 6.19167L20.1692 8.52362L20.8577 9.37596C21.4982 10.164 21.8504 10.8234 22.2667 11.9652L22.4269 12.4155L23.3556 11.9009C23.852 11.6114 24.4444 11.2576 24.6686 11.1289C25.0369 10.936 25.277 10.936 26.7982 11.2255C27.7429 11.4024 28.5115 11.4827 28.5115 11.4184C28.5115 11.3541 28.3514 10.8073 28.1752 10.2123C27.7909 8.95781 27.1024 7.52651 26.3819 6.449C25.7414 5.48404 24.3483 3.87579 24.1722 3.87579C24.1081 3.87579 23.1634 4.92115 22.1066 6.19167Z" fill="#1D65FF"/>
<path d="M23.9161 12.8338L22.5871 13.5896V14.7475C22.5871 15.4712 22.459 16.3075 22.2509 16.983C22.0747 17.578 21.9787 18.1248 22.0587 18.1892C22.475 18.5752 27.0866 21.1001 27.2146 21.0197C27.5028 20.8267 28.3515 18.3822 28.5917 16.983C28.8479 15.4391 28.9119 13.2519 28.6877 12.8981C28.5757 12.7212 26.0457 12.1101 25.3892 12.094C25.3092 12.094 24.6367 12.4317 23.9161 12.8338Z" fill="#1D65FF"/>
<path d="M0.0740776 13.1553C-0.198129 14.5866 0.31426 18.1247 1.03481 19.8295L1.291 20.4406L2.78013 20.4245C4.94178 20.3923 4.9898 20.3763 5.95055 19.0093L6.78316 17.8031L6.57502 17.0794C6.46293 16.6773 6.31881 15.7285 6.27079 14.9726L6.1747 13.6056L3.77289 13.1875C-0.246166 12.4638 0.202175 12.4638 0.0740776 13.1553Z" fill="#1D65FF"/>
<path d="M6.51075 20.1029L5.61403 21.3735L3.86873 21.4378C2.908 21.47 2.05935 21.5343 2.01131 21.5986C1.85119 21.7595 3.03609 23.432 4.02886 24.4774C5.06965 25.5549 6.65482 26.745 7.88779 27.3722C8.40016 27.6295 8.83249 27.8386 8.88055 27.8386C8.91257 27.8386 9.2168 27.0988 9.53704 26.1821C9.87328 25.2815 10.3376 23.9788 10.5938 23.3033L11.0422 22.065L10.3056 21.6469C9.39292 21.1001 8.41617 20.2316 7.83972 19.4275L7.40743 18.8164L6.51075 20.1029Z" fill="#1D65FF"/>
<path d="M20.4573 20.0385C20.025 20.521 19.2564 21.1804 18.744 21.502L17.7993 22.081L18.4238 23.8018C19.5606 26.97 19.8328 27.6937 19.9289 27.7902C20.041 27.9189 22.0265 26.8092 23.0192 26.0533C24.028 25.2974 25.389 23.9144 26.0936 22.9333L26.59 22.2257L25.4371 21.5502C24.7966 21.1804 23.6117 20.4888 22.7951 20.0064C21.9945 19.54 21.3059 19.154 21.2739 19.1701C21.2579 19.1701 20.8736 19.5721 20.4573 20.0385Z" fill="#1D65FF"/>
<path d="M11.0745 25.394C10.5301 26.9378 10.0978 28.2244 10.1298 28.2566C10.1618 28.2888 10.6582 28.4335 11.2346 28.5944C12.6597 28.9803 16.1824 28.9803 17.6074 28.5944C18.1839 28.4335 18.6643 28.2888 18.6963 28.2566C18.7283 28.2244 18.296 26.9539 17.7516 25.4261L16.7428 22.6438L12.0833 22.6117L11.0745 25.394Z" fill="#1D65FF"/>
<path d="M11.9069 0.273366C9.9054 0.643241 7.96793 1.43126 6.30267 2.57312L5.61414 3.02343L7.55164 5.35538C8.60844 6.62587 9.53714 7.67122 9.58516 7.65514C9.64923 7.65514 10.1776 7.41393 10.7701 7.12445C11.3625 6.83496 12.2912 6.51332 12.8196 6.41681L13.7804 6.22384V0.0321159L13.4281 0.0481938C13.2199 0.0481938 12.5474 0.16078 11.9069 0.273366Z" fill="#FF00C7" fill-opacity="0.25"/>
<path d="M15.0612 6.22373L16.022 6.41671C16.5504 6.51322 17.4791 6.83486 18.0716 7.12434C18.664 7.41383 19.1924 7.65504 19.2405 7.65504C19.3045 7.67112 20.2172 6.62576 21.29 5.35528L23.2275 3.0394L22.4108 2.47651C20.6175 1.27034 18.2477 0.401924 15.99 0.128517L15.0612 0.0159302V6.22373Z" fill="#FF00C7" fill-opacity="0.1"/>
<path d="M3.74091 4.80867C2.23577 6.57773 1.25902 8.28244 0.666574 10.2284C0.474428 10.8396 0.346329 11.3542 0.362341 11.3703C0.506451 11.4989 6.27084 12.4156 6.41495 12.3352C6.49499 12.287 6.57506 12.1422 6.57506 12.0457C6.57506 11.6276 7.53578 9.84245 8.09621 9.21525L8.68866 8.55585L6.75119 6.22393C5.67839 4.93733 4.73368 3.89198 4.66961 3.89198C4.58957 3.89198 4.17325 4.31013 3.74091 4.80867Z" fill="#FF00C7" fill-opacity="0.35"/>
<path d="M23.9161 12.8497L22.5871 13.6056V14.7636C22.5871 15.4873 22.459 16.3235 22.2509 16.999C22.0747 17.594 21.9787 18.1409 22.0587 18.2052C22.475 18.5912 27.0866 21.1161 27.2146 21.0357C27.5028 20.8427 28.3515 18.3982 28.5917 16.999C28.8479 15.4551 28.9119 13.2679 28.6877 12.9141C28.5757 12.7372 26.0457 12.126 25.3892 12.11C25.3092 12.11 24.6367 12.4477 23.9161 12.8497Z" fill="#FF00C7"/>
<path d="M0.0740776 13.1715C-0.198129 14.6028 0.31426 18.1409 1.03481 19.8456L1.291 20.4568L2.78013 20.4407C4.94178 20.4085 4.9898 20.3924 5.95055 19.0255L6.78316 17.8193L6.57502 17.0956C6.46293 16.6935 6.31881 15.7447 6.27079 14.9888L6.1747 13.6218L3.77289 13.2036C-0.246166 12.4799 0.202175 12.4799 0.0740776 13.1715Z" fill="#FF00C7" fill-opacity="0.5"/>
<path d="M6.51075 20.119L5.61403 21.3895L3.86873 21.4538C2.908 21.4859 2.05935 21.5503 2.01131 21.6146C1.85119 21.7754 3.03609 23.448 4.02886 24.4933C5.06965 25.5709 6.65482 26.761 7.88779 27.3882C8.40016 27.6455 8.83249 27.8546 8.88055 27.8546C8.91257 27.8546 9.2168 27.1148 9.53704 26.1981C9.87328 25.2975 10.3376 23.9948 10.5938 23.3194L11.0422 22.081L10.3056 21.6628C9.39292 21.1161 8.41617 20.2476 7.83972 19.4435L7.40743 18.8323L6.51075 20.119Z" fill="#FF00C7" fill-opacity="0.65"/>
<path d="M20.4573 20.0547C20.025 20.5372 19.2564 21.1965 18.744 21.5182L17.7993 22.0971L18.4238 23.818C19.5606 26.9862 19.8328 27.7099 19.9289 27.8064C20.041 27.9351 22.0265 26.8253 23.0192 26.0695C24.028 25.3136 25.389 23.9305 26.0936 22.9495L26.59 22.2419L25.4371 21.5664C24.7966 21.1965 23.6117 20.505 22.7951 20.0225C21.9945 19.5561 21.3059 19.1702 21.2739 19.1862C21.2579 19.1862 20.8736 19.5883 20.4573 20.0547Z" fill="#FF00C7" fill-opacity="0.85"/>
<path d="M11.0745 25.4101C10.5301 26.954 10.0978 28.2406 10.1298 28.2728C10.1618 28.3049 10.6582 28.4497 11.2346 28.6105C12.6597 28.9965 16.1824 28.9965 17.6074 28.6105C18.1839 28.4497 18.6643 28.3049 18.6963 28.2728C18.7283 28.2406 18.296 26.9701 17.7516 25.4423L16.7428 22.66L12.0833 22.6279L11.0745 25.4101Z" fill="#FF00C7" fill-opacity="0.75"/>
</svg>
