<svg width="960" height="804" viewBox="0 0 960 804" fill="none" xmlns="http://www.w3.org/2000/svg">
<g clip-path="url(#clip0_45_2154)">
<mask id="mask0_45_2154" style="mask-type:alpha" maskUnits="userSpaceOnUse" x="-248" y="0" width="1096" height="1070">
<rect x="-248" width="1096" height="1070" rx="360" fill="#D9D9D9"/>
</mask>
<g mask="url(#mask0_45_2154)">
<rect x="-181" y="662.566" width="1170" height="744" transform="rotate(-31.8016 -181 662.566)" fill="url(#paint0_linear_45_2154)"/>
<rect x="-575" y="30.5659" width="1170" height="744" transform="rotate(-31.8016 -575 30.5659)" fill="url(#paint1_linear_45_2154)"/>
</g>
<g clip-path="url(#clip1_45_2154)">
<mask id="path-4-inside-1_45_2154" fill="white">
<path d="M692.755 472.914L692.565 472.857L494.392 413.425L491.988 412.704L644.505 268.928L644.604 268.958L845.272 329.139L768.632 401.386L692.913 472.766L692.755 472.914ZM492.688 412.538L494.438 413.063L692.66 472.51L766.724 402.69L844.572 329.304L644.601 269.332L492.688 412.538Z"/>
<path d="M741.103 676.53L540.331 616.334L492.091 412.359L494.438 413.063L692.664 472.495L692.863 472.555L692.913 472.766L741.103 676.53ZM540.634 616.049L740.609 676.006L692.565 472.857L692.561 472.84L494.392 413.425L492.585 412.883L540.634 616.049Z"/>
<path d="M740.768 676.609L692.565 472.857L692.513 472.638L692.589 472.566L692.664 472.495L766.724 402.69L845.041 328.873L893.296 532.845L893.22 532.916L740.768 676.609ZM692.911 472.757L692.913 472.766L740.975 675.92L892.897 532.725L844.834 329.563L768.632 401.386L692.911 472.757Z"/>
<path d="M492.688 412.538L494.438 413.063L692.664 472.495L766.724 402.69L844.572 329.304L644.601 269.332L492.688 412.538Z"/>
<path d="M540.634 616.049L740.609 676.006L692.565 472.857L494.392 413.425L492.585 412.883L540.634 616.049Z"/>
<path d="M692.913 472.766L740.975 675.92L892.897 532.725L844.834 329.563L768.632 401.386L692.913 472.766Z"/>
</mask>
<path d="M692.755 472.914L692.565 472.857L494.392 413.425L491.988 412.704L644.505 268.928L644.604 268.958L845.272 329.139L768.632 401.386L692.913 472.766L692.755 472.914ZM492.688 412.538L494.438 413.063L692.66 472.51L766.724 402.69L844.572 329.304L644.601 269.332L492.688 412.538Z" fill="#EEF3FD"/>
<path d="M741.103 676.53L540.331 616.334L492.091 412.359L494.438 413.063L692.664 472.495L692.863 472.555L692.913 472.766L741.103 676.53ZM540.634 616.049L740.609 676.006L692.565 472.857L692.561 472.84L494.392 413.425L492.585 412.883L540.634 616.049Z" fill="#EEF3FD"/>
<path d="M740.768 676.609L692.565 472.857L692.513 472.638L692.589 472.566L692.664 472.495L766.724 402.69L845.041 328.873L893.296 532.845L893.22 532.916L740.768 676.609ZM692.911 472.757L692.913 472.766L740.975 675.92L892.897 532.725L844.834 329.563L768.632 401.386L692.911 472.757Z" fill="#EEF3FD"/>
<path d="M492.688 412.538L494.438 413.063L692.664 472.495L766.724 402.69L844.572 329.304L644.601 269.332L492.688 412.538Z" fill="url(#paint2_linear_45_2154)"/>
<path d="M540.634 616.049L740.609 676.006L692.565 472.857L494.392 413.425L492.585 412.883L540.634 616.049Z" fill="url(#paint3_linear_45_2154)"/>
<path d="M692.913 472.766L740.975 675.92L892.897 532.725L844.834 329.563L768.632 401.386L692.913 472.766Z" fill="url(#paint4_linear_45_2154)"/>
<path d="M492.688 412.538L492.002 411.81L490.742 412.998L492.401 413.496L492.688 412.538ZM844.572 329.304L845.258 330.032L846.518 328.844L844.859 328.346L844.572 329.304ZM644.601 269.332L644.888 268.374L644.335 268.208L643.915 268.604L644.601 269.332ZM540.634 616.049L539.66 616.279L539.793 616.841L540.346 617.007L540.634 616.049ZM740.609 676.006L740.322 676.964L741.981 677.461L741.582 675.776L740.609 676.006ZM492.585 412.883L492.872 411.925L491.213 411.427L491.612 413.113L492.585 412.883ZM740.975 675.92L740.001 676.15L740.4 677.835L741.66 676.647L740.975 675.92ZM892.897 532.725L893.583 533.453L894.003 533.057L893.87 532.495L892.897 532.725ZM844.834 329.563L845.807 329.332L845.408 327.647L844.148 328.835L844.834 329.563ZM494.438 413.063L494.151 414.02L494.151 414.021L494.438 413.063ZM692.664 472.495L692.377 473.453L692.93 473.619L693.35 473.223L692.664 472.495ZM766.724 402.69L767.41 403.418L767.41 403.418L766.724 402.69ZM692.565 472.857L693.538 472.627L693.405 472.065L692.852 471.899L692.565 472.857ZM494.392 413.425L494.679 412.467L494.679 412.467L494.392 413.425ZM692.913 472.766L692.227 472.038L691.807 472.434L691.94 472.996L692.913 472.766ZM768.632 401.386L767.946 400.658L767.946 400.658L768.632 401.386ZM844.572 329.304L844.859 328.346L644.888 268.374L644.601 269.332L644.313 270.29L844.285 330.262L844.572 329.304ZM644.601 269.332L643.915 268.604L492.002 411.81L492.688 412.538L493.374 413.266L645.287 270.06L644.601 269.332ZM525.855 422.758L526.582 422.072L526.335 421.81L525.608 422.497L524.88 423.183L525.127 423.444L525.855 422.758ZM677.822 279.006L677.095 279.692L677.342 279.954L678.069 279.267L678.796 278.581L678.55 278.32L677.822 279.006ZM559.246 432.783L559.974 432.097L559.727 431.836L559 432.522L558.272 433.208L558.519 433.47L559.246 432.783ZM711.214 289.031L710.487 289.717L710.733 289.979L711.461 289.293L712.188 288.606L711.941 288.345L711.214 289.031ZM592.646 442.797L593.374 442.111L593.127 441.849L592.399 442.536L591.672 443.222L591.919 443.483L592.646 442.797ZM744.614 299.045L743.887 299.731L744.134 299.993L744.861 299.307L745.588 298.621L745.342 298.359L744.614 299.045ZM626.044 452.803L626.772 452.117L626.525 451.855L625.797 452.541L625.07 453.227L625.317 453.489L626.044 452.803ZM778.012 309.05L777.284 309.737L777.531 309.998L778.259 309.312L778.986 308.626L778.739 308.364L778.012 309.05ZM659.436 462.828L660.163 462.142L659.917 461.88L659.189 462.566L658.462 463.252L658.709 463.514L659.436 462.828ZM811.404 319.075L810.676 319.762L810.923 320.023L811.65 319.337L812.378 318.651L812.131 318.389L811.404 319.075ZM517.656 388.878L518.613 389.165L518.717 388.821L517.759 388.533L516.801 388.246L516.698 388.59L517.656 388.878ZM718.128 448.625L717.171 448.337L717.067 448.682L718.025 448.969L718.983 449.257L719.086 448.913L718.128 448.625ZM543.025 364.963L543.982 365.25L544.086 364.906L543.128 364.618L542.17 364.331L542.067 364.675L543.025 364.963ZM743.497 424.71L742.54 424.422L742.436 424.766L743.394 425.054L744.352 425.342L744.455 424.998L743.497 424.71ZM568.394 341.048L569.352 341.335L569.455 340.991L568.497 340.703L567.539 340.416L567.436 340.76L568.394 341.048ZM768.867 400.795L767.909 400.507L767.805 400.851L768.763 401.139L769.721 401.427L769.824 401.082L768.867 400.795ZM593.763 317.133L594.721 317.42L594.824 317.076L593.866 316.788L592.909 316.501L592.805 316.845L593.763 317.133ZM794.236 376.88L793.278 376.592L793.175 376.936L794.132 377.224L795.09 377.512L795.194 377.168L794.236 376.88ZM619.132 293.218L620.09 293.505L620.193 293.161L619.235 292.873L618.278 292.586L618.174 292.93L619.132 293.218ZM819.605 352.964L818.647 352.677L818.543 353.022L819.501 353.309L820.459 353.596L820.562 353.252L819.605 352.964ZM540.634 616.049L540.346 617.007L740.322 676.964L740.609 676.006L740.896 675.048L540.921 615.091L540.634 616.049ZM492.585 412.883L491.612 413.113L539.66 616.279L540.634 616.049L541.607 615.819L493.558 412.653L492.585 412.883ZM499.164 441.875L500.122 442.162L500.225 441.817L499.268 441.53L498.31 441.243L498.206 441.587L499.164 441.875ZM699.641 501.606L698.684 501.319L698.58 501.663L699.538 501.951L700.496 502.239L700.599 501.894L699.641 501.606ZM506.042 470.956L507 471.244L507.103 470.899L506.145 470.612L505.187 470.324L505.084 470.669L506.042 470.956ZM706.519 530.688L705.562 530.4L705.458 530.744L706.416 531.033L707.373 531.321L707.477 530.977L706.519 530.688ZM512.92 500.038L513.878 500.324L513.981 499.98L513.023 499.693L512.065 499.406L511.962 499.751L512.92 500.038ZM713.397 559.77L712.439 559.482L712.336 559.826L713.293 560.114L714.251 560.402L714.355 560.057L713.397 559.77ZM519.798 529.119L520.755 529.406L520.859 529.062L519.901 528.774L518.943 528.487L518.84 528.831L519.798 529.119ZM720.275 588.851L719.317 588.563L719.214 588.908L720.171 589.196L721.129 589.484L721.232 589.139L720.275 588.851ZM526.675 558.201L527.633 558.488L527.736 558.144L526.779 557.856L525.821 557.569L525.717 557.913L526.675 558.201ZM727.152 617.933L726.194 617.645L726.091 617.99L727.049 618.277L728.007 618.565L728.11 618.22L727.152 617.933ZM533.553 587.282L534.511 587.57L534.614 587.225L533.656 586.938L532.699 586.65L532.595 586.994L533.553 587.282ZM734.03 647.014L733.072 646.727L732.969 647.071L733.926 647.359L734.884 647.646L734.988 647.302L734.03 647.014ZM525.555 422.676L525.785 423.649L526.135 423.566L525.905 422.593L525.675 421.62L525.325 421.703L525.555 422.676ZM574.057 626.162L573.827 625.189L573.477 625.272L573.707 626.245L573.937 627.218L574.287 627.135L574.057 626.162ZM558.951 432.689L559.181 433.662L559.531 433.579L559.301 432.606L559.071 431.633L558.72 431.715L558.951 432.689ZM607.452 636.175L607.222 635.202L606.872 635.284L607.102 636.258L607.332 637.231L607.683 637.148L607.452 636.175ZM592.346 442.701L592.576 443.674L592.926 443.592L592.696 442.619L592.466 441.645L592.116 441.728L592.346 442.701ZM640.848 646.188L640.618 645.214L640.268 645.297L640.498 646.27L640.728 647.244L641.078 647.161L640.848 646.188ZM625.742 452.714L625.972 453.687L626.322 453.605L626.092 452.631L625.862 451.658L625.512 451.741L625.742 452.714ZM674.244 656.2L674.014 655.227L673.663 655.31L673.894 656.283L674.124 657.256L674.474 657.173L674.244 656.2ZM659.138 462.727L659.368 463.7L659.718 463.617L659.488 462.644L659.258 461.671L658.907 461.754L659.138 462.727ZM707.639 666.213L707.409 665.24L707.059 665.323L707.289 666.296L707.519 667.269L707.87 667.186L707.639 666.213ZM740.975 675.92L741.66 676.647L893.583 533.453L892.897 532.725L892.211 531.997L740.289 675.192L740.975 675.92ZM892.897 532.725L893.87 532.495L845.807 329.332L844.834 329.563L843.861 329.793L891.924 532.955L892.897 532.725ZM734.115 647.314L734.842 646.627L734.595 646.366L733.868 647.052L733.141 647.739L733.388 648.001L734.115 647.314ZM886.093 503.573L885.366 504.259L885.613 504.521L886.34 503.835L887.068 503.148L886.821 502.887L886.093 503.573ZM727.235 618.233L727.962 617.547L727.715 617.285L726.988 617.971L726.261 618.658L726.507 618.919L727.235 618.233ZM879.213 474.492L878.486 475.178L878.732 475.44L879.46 474.754L880.188 474.068L879.941 473.807L879.213 474.492ZM720.355 589.152L721.082 588.466L720.835 588.204L720.108 588.891L719.381 589.577L719.628 589.839L720.355 589.152ZM872.333 445.411L871.606 446.097L871.853 446.359L872.58 445.673L873.308 444.986L873.061 444.725L872.333 445.411ZM713.475 560.071L714.202 559.385L713.956 559.123L713.228 559.809L712.501 560.496L712.748 560.757L713.475 560.071ZM865.454 416.33L864.726 417.016L864.973 417.278L865.7 416.592L866.428 415.906L866.181 415.644L865.454 416.33ZM706.595 530.99L707.323 530.304L707.076 530.043L706.349 530.729L705.621 531.415L705.868 531.676L706.595 530.99ZM858.574 387.249L857.846 387.935L858.093 388.197L858.82 387.511L859.548 386.825L859.301 386.563L858.574 387.249ZM699.716 501.909L700.443 501.223L700.196 500.961L699.469 501.647L698.741 502.333L698.988 502.595L699.716 501.909ZM851.694 358.168L850.966 358.854L851.213 359.116L851.941 358.43L852.668 357.744L852.421 357.482L851.694 358.168ZM819.395 353.172L819.625 354.145L819.975 354.062L819.745 353.089L819.515 352.116L819.165 352.199L819.395 353.172ZM867.897 556.658L867.667 555.685L867.317 555.768L867.547 556.741L867.777 557.714L868.127 557.631L867.897 556.658ZM794.024 377.085L794.255 378.058L794.605 377.975L794.375 377.002L794.144 376.029L793.794 376.112L794.024 377.085ZM842.526 580.571L842.296 579.598L841.946 579.681L842.176 580.654L842.406 581.627L842.756 581.544L842.526 580.571ZM768.653 400.998L768.883 401.971L769.234 401.888L769.003 400.915L768.773 399.942L768.423 400.025L768.653 400.998ZM817.155 604.484L816.925 603.511L816.575 603.594L816.805 604.567L817.035 605.54L817.385 605.457L817.155 604.484ZM743.282 424.911L743.513 425.885L743.863 425.802L743.633 424.829L743.402 423.855L743.052 423.938L743.282 424.911ZM791.784 628.398L791.554 627.424L791.204 627.507L791.434 628.48L791.664 629.453L792.014 629.371L791.784 628.398ZM717.912 448.825L718.142 449.798L718.492 449.715L718.262 448.742L718.032 447.769L717.682 447.851L717.912 448.825ZM766.414 652.311L766.183 651.337L765.833 651.42L766.063 652.393L766.294 653.367L766.644 653.284L766.414 652.311ZM492.688 412.538L492.401 413.496L494.151 414.02L494.438 413.063L494.725 412.105L492.975 411.58L492.688 412.538ZM494.438 413.063L494.151 414.021L692.377 473.453L692.664 472.495L692.951 471.537L494.725 412.105L494.438 413.063ZM692.664 472.495L693.35 473.223L767.41 403.418L766.724 402.69L766.039 401.962L691.978 471.767L692.664 472.495ZM766.724 402.69L767.41 403.418L845.258 330.032L844.572 329.304L843.886 328.577L766.038 401.962L766.724 402.69ZM740.609 676.006L741.582 675.776L693.538 472.627L692.565 472.857L691.592 473.087L739.636 676.236L740.609 676.006ZM692.565 472.857L692.852 471.899L494.679 412.467L494.392 413.425L494.105 414.382L692.278 473.815L692.565 472.857ZM494.392 413.425L494.679 412.467L492.872 411.925L492.585 412.883L492.298 413.841L494.105 414.382L494.392 413.425ZM692.913 472.766L691.94 472.996L740.001 676.15L740.975 675.92L741.948 675.689L693.886 472.535L692.913 472.766ZM844.834 329.563L844.148 328.835L767.946 400.658L768.632 401.386L769.318 402.114L845.52 330.29L844.834 329.563ZM768.632 401.386L767.946 400.658L692.227 472.038L692.913 472.766L693.599 473.493L769.318 402.114L768.632 401.386ZM692.755 472.914L692.181 474.83L693.287 475.162L694.127 474.369L692.755 472.914ZM491.988 412.704L490.616 411.248L488.096 413.624L491.414 414.619L491.988 412.704ZM644.505 268.928L645.082 267.013L643.975 266.679L643.133 267.473L644.505 268.928ZM644.604 268.958L644.027 270.873L644.03 270.874L644.604 268.958ZM845.272 329.139L846.644 330.594L849.165 328.218L845.847 327.223L845.272 329.139ZM692.66 472.51L692.085 474.426L693.191 474.757L694.032 473.965L692.66 472.51ZM741.103 676.53L740.528 678.446L743.846 679.44L743.049 676.07L741.103 676.53ZM540.331 616.334L538.385 616.795L538.651 617.918L539.757 618.25L540.331 616.334ZM492.091 412.359L492.666 410.443L489.348 409.449L490.145 412.819L492.091 412.359ZM692.863 472.555L694.809 472.094L694.544 470.971L693.438 470.639L692.863 472.555ZM692.561 472.84L694.507 472.38L694.241 471.256L693.135 470.924L692.561 472.84ZM740.768 676.609L738.822 677.07L739.619 680.44L742.14 678.064L740.768 676.609ZM692.513 472.638L691.143 471.18L690.3 471.972L690.567 473.098L692.513 472.638ZM692.589 472.566L693.958 474.024L693.96 474.022L692.589 472.566ZM845.041 328.873L846.987 328.413L846.19 325.042L843.669 327.418L845.041 328.873ZM893.296 532.845L894.663 534.305L895.509 533.513L895.242 532.384L893.296 532.845ZM893.22 532.916L891.853 531.456L891.848 531.46L893.22 532.916ZM692.911 472.757L691.539 471.302L690.699 472.094L690.965 473.217L692.911 472.757ZM494.438 413.063L495.012 411.147L495.012 411.147L494.438 413.063ZM692.664 472.495L693.239 470.579L692.133 470.248L691.292 471.04L692.664 472.495ZM766.724 402.69L765.353 401.235L765.353 401.235L766.724 402.69ZM692.565 472.857L690.619 473.317L690.619 473.317L692.565 472.857ZM494.392 413.425L493.818 415.34L493.818 415.34L494.392 413.425ZM692.913 472.766L694.859 472.305L694.859 472.305L692.913 472.766ZM768.632 401.386L770.004 402.842L770.004 402.841L768.632 401.386ZM644.505 268.928L643.928 270.843L644.027 270.873L644.604 268.958L645.181 267.043L645.082 267.013L644.505 268.928ZM644.604 268.958L644.03 270.874L844.698 331.054L845.272 329.139L845.847 327.223L645.179 267.042L644.604 268.958ZM540.331 616.334L542.278 615.874L494.038 411.899L492.091 412.359L490.145 412.819L538.385 616.795L540.331 616.334ZM692.513 472.638L693.882 474.095L693.958 474.024L692.589 472.566L691.219 471.109L691.143 471.18L692.513 472.638ZM845.041 328.873L843.095 329.334L891.349 533.305L893.296 532.845L895.242 532.384L846.987 328.413L845.041 328.873ZM893.296 532.845L891.929 531.385L891.853 531.456L893.22 532.916L894.587 534.376L894.663 534.305L893.296 532.845ZM893.22 532.916L891.848 531.46L739.396 675.154L740.768 676.609L742.14 678.064L894.592 534.371L893.22 532.916ZM491.988 412.704L493.36 414.159L645.877 270.383L644.505 268.928L643.133 267.473L490.616 411.248L491.988 412.704ZM741.103 676.53L741.677 674.614L540.906 614.419L540.331 616.334L539.757 618.25L740.528 678.446L741.103 676.53ZM692.66 472.51L694.032 473.965L768.096 404.145L766.724 402.69L765.353 401.235L691.288 471.055L692.66 472.51ZM692.589 472.566L693.96 474.022L694.036 473.95L692.664 472.495L691.292 471.04L691.217 471.111L692.589 472.566ZM766.724 402.69L768.096 404.145L846.413 330.329L845.041 328.873L843.669 327.418L765.353 401.235L766.724 402.69ZM492.091 412.359L491.517 414.275L493.863 414.978L494.438 413.063L495.012 411.147L492.666 410.443L492.091 412.359ZM692.664 472.495L692.09 474.411L692.289 474.47L692.863 472.555L693.438 470.639L693.239 470.579L692.664 472.495ZM494.438 413.063L493.863 414.978L692.085 474.426L692.66 472.51L693.234 470.594L495.012 411.147L494.438 413.063ZM692.561 472.84L693.135 470.924L494.967 411.509L494.392 413.425L493.818 415.34L691.986 474.756L692.561 472.84ZM692.755 472.914L693.33 470.998L693.139 470.941L692.565 472.857L691.99 474.773L692.181 474.83L692.755 472.914ZM494.392 413.425L494.967 411.509L492.563 410.788L491.988 412.704L491.414 414.619L493.818 415.34L494.392 413.425ZM740.768 676.609L742.714 676.149L694.511 472.397L692.565 472.857L690.619 473.317L738.822 677.07L740.768 676.609ZM692.565 472.857L694.511 472.397L694.459 472.177L692.513 472.638L690.567 473.098L690.619 473.317L692.565 472.857ZM692.565 472.857L694.511 472.397L694.507 472.38L692.561 472.84L690.614 473.3L690.619 473.317L692.565 472.857ZM768.632 401.386L767.26 399.931L691.539 471.302L692.911 472.757L694.283 474.212L770.004 402.842L768.632 401.386ZM845.272 329.139L843.9 327.683L767.26 399.931L768.632 401.386L770.004 402.841L846.644 330.594L845.272 329.139ZM692.913 472.766L691.541 471.31L691.383 471.459L692.755 472.914L694.127 474.369L694.285 474.221L692.913 472.766ZM692.911 472.757L690.965 473.217L690.967 473.226L692.913 472.766L694.859 472.305L694.857 472.297L692.911 472.757ZM692.863 472.555L690.917 473.015L690.967 473.226L692.913 472.766L694.859 472.305L694.809 472.094L692.863 472.555ZM692.913 472.766L690.967 473.226L739.157 676.99L741.103 676.53L743.049 676.07L694.859 472.305L692.913 472.766Z" fill="url(#paint5_linear_45_2154)" mask="url(#path-4-inside-1_45_2154)"/>
</g>
<g clip-path="url(#clip2_45_2154)">
<mask id="path-6-inside-2_45_2154" fill="white">
<path d="M308.013 208.047L308.115 208.017L414.322 176.165L415.61 175.778L333.872 98.7247L333.819 98.7407L226.274 130.993L267.348 169.713L307.928 207.968L308.013 208.047ZM415.235 175.69L414.298 175.971L308.064 207.831L268.371 170.412L226.65 131.082L333.821 98.9412L415.235 175.69Z"/>
<path d="M282.102 317.171L389.702 284.911L415.555 175.594L414.298 175.971L308.062 207.823L307.955 207.855L307.928 207.968L282.102 317.171ZM389.54 284.758L282.367 316.891L308.115 208.017L308.117 208.007L414.322 176.165L415.29 175.875L389.54 284.758Z"/>
<path d="M282.281 317.214L308.115 208.017L308.143 207.899L308.102 207.861L308.062 207.823L268.371 170.412L226.398 130.851L200.537 240.166L200.578 240.204L282.281 317.214ZM307.93 207.963L307.928 207.968L282.171 316.844L200.751 240.102L226.509 131.221L267.348 169.713L307.93 207.963Z"/>
<path d="M415.235 175.69L414.298 175.971L308.062 207.823L268.371 170.412L226.65 131.082L333.821 98.9412L415.235 175.69Z"/>
<path d="M389.54 284.758L282.367 316.891L308.115 208.017L414.322 176.165L415.29 175.875L389.54 284.758Z"/>
<path d="M307.928 207.968L282.171 316.844L200.751 240.102L226.509 131.221L267.348 169.713L307.928 207.968Z"/>
</mask>
<path d="M308.013 208.047L308.115 208.017L414.322 176.165L415.61 175.778L333.872 98.7247L333.819 98.7407L226.274 130.993L267.348 169.713L307.928 207.968L308.013 208.047ZM415.235 175.69L414.298 175.971L308.064 207.831L268.371 170.412L226.65 131.082L333.821 98.9412L415.235 175.69Z" fill="#EEF3FD"/>
<path d="M282.102 317.171L389.702 284.911L415.555 175.594L414.298 175.971L308.062 207.823L307.955 207.855L307.928 207.968L282.102 317.171ZM389.54 284.758L282.367 316.891L308.115 208.017L308.117 208.007L414.322 176.165L415.29 175.875L389.54 284.758Z" fill="#EEF3FD"/>
<path d="M282.281 317.214L308.115 208.017L308.143 207.899L308.102 207.861L308.062 207.823L268.371 170.412L226.398 130.851L200.537 240.166L200.578 240.204L282.281 317.214ZM307.93 207.963L307.928 207.968L282.171 316.844L200.751 240.102L226.509 131.221L267.348 169.713L307.93 207.963Z" fill="#EEF3FD"/>
<path d="M415.235 175.69L414.298 175.971L308.062 207.823L268.371 170.412L226.65 131.082L333.821 98.9412L415.235 175.69Z" fill="url(#paint6_linear_45_2154)"/>
<path d="M389.54 284.758L282.367 316.891L308.115 208.017L414.322 176.165L415.29 175.875L389.54 284.758Z" fill="url(#paint7_linear_45_2154)"/>
<path d="M307.928 207.968L282.171 316.844L200.751 240.102L226.509 131.221L267.348 169.713L307.928 207.968Z" fill="url(#paint8_linear_45_2154)"/>
<path d="M415.235 175.69L415.921 174.962L417.181 176.15L415.522 176.648L415.235 175.69ZM226.65 131.082L225.964 131.81L224.704 130.622L226.362 130.124L226.65 131.082ZM333.821 98.9412L333.533 97.9834L334.086 97.8175L334.507 98.2136L333.821 98.9412ZM389.54 284.758L390.513 284.988L390.38 285.55L389.827 285.716L389.54 284.758ZM282.367 316.891L282.654 317.849L280.995 318.346L281.393 316.66L282.367 316.891ZM415.29 175.875L415.003 174.917L416.662 174.419L416.264 176.105L415.29 175.875ZM282.171 316.844L283.144 317.074L282.745 318.76L281.485 317.572L282.171 316.844ZM200.751 240.102L200.065 240.83L199.644 240.434L199.777 239.872L200.751 240.102ZM226.509 131.221L225.536 130.99L225.935 129.305L227.195 130.493L226.509 131.221ZM414.298 175.971L414.585 176.929L414.585 176.929L414.298 175.971ZM308.062 207.823L308.349 208.781L307.796 208.946L307.376 208.55L308.062 207.823ZM268.371 170.412L267.685 171.14L267.685 171.14L268.371 170.412ZM308.115 208.017L307.142 207.786L307.275 207.225L307.828 207.059L308.115 208.017ZM414.322 176.165L414.035 175.207L414.035 175.207L414.322 176.165ZM307.928 207.968L308.614 207.24L309.035 207.636L308.902 208.198L307.928 207.968ZM267.348 169.713L268.034 168.985L268.034 168.985L267.348 169.713ZM226.65 131.082L226.362 130.124L333.533 97.9834L333.821 98.9412L334.108 99.8991L226.937 132.04L226.65 131.082ZM333.821 98.9412L334.507 98.2136L415.921 174.962L415.235 175.69L414.549 176.417L333.135 99.6689L333.821 98.9412ZM397.46 181.167L396.733 180.481L396.865 180.341L397.593 181.027L398.32 181.713L398.188 181.853L397.46 181.167ZM316.016 104.126L316.743 104.812L316.611 104.952L315.884 104.266L315.156 103.58L315.289 103.44L316.016 104.126ZM379.565 186.54L378.837 185.854L378.969 185.714L379.697 186.4L380.424 187.086L380.292 187.226L379.565 186.54ZM298.12 109.499L298.848 110.185L298.715 110.325L297.988 109.639L297.261 108.952L297.393 108.812L298.12 109.499ZM361.665 191.907L360.937 191.22L361.069 191.08L361.797 191.766L362.524 192.453L362.392 192.593L361.665 191.907ZM280.22 114.865L280.948 115.552L280.815 115.692L280.088 115.006L279.36 114.319L279.493 114.179L280.22 114.865ZM343.766 197.269L343.038 196.583L343.17 196.443L343.898 197.129L344.625 197.815L344.493 197.955L343.766 197.269ZM262.321 120.227L263.049 120.914L262.916 121.054L262.189 120.368L261.462 119.682L261.594 119.541L262.321 120.227ZM325.87 202.642L325.142 201.955L325.275 201.815L326.002 202.501L326.73 203.188L326.597 203.328L325.87 202.642ZM244.425 125.6L245.153 126.286L245.021 126.426L244.293 125.74L243.566 125.054L243.698 124.914L244.425 125.6ZM401.854 163.009L400.897 163.297L400.841 163.113L401.799 162.825L402.757 162.537L402.812 162.722L401.854 163.009ZM294.415 195.03L295.372 194.742L295.428 194.927L294.47 195.214L293.512 195.502L293.457 195.317L294.415 195.03ZM388.258 150.193L387.301 150.48L387.245 150.296L388.203 150.008L389.161 149.721L389.216 149.905L388.258 150.193ZM280.819 182.213L281.776 181.925L281.832 182.11L280.874 182.398L279.916 182.686L279.861 182.501L280.819 182.213ZM374.662 137.376L373.704 137.664L373.649 137.479L374.607 137.191L375.565 136.904L375.62 137.088L374.662 137.376ZM267.222 169.396L268.18 169.109L268.236 169.293L267.278 169.581L266.32 169.868L266.265 169.684L267.222 169.396ZM361.066 124.559L360.108 124.847L360.053 124.662L361.011 124.374L361.968 124.087L362.024 124.271L361.066 124.559ZM253.626 156.579L254.584 156.291L254.639 156.476L253.682 156.764L252.724 157.052L252.669 156.867L253.626 156.579ZM347.47 111.742L346.512 112.03L346.457 111.845L347.415 111.558L348.372 111.27L348.428 111.455L347.47 111.742ZM240.03 143.762L240.988 143.475L241.044 143.66L240.086 143.947L239.128 144.234L239.073 144.05L240.03 143.762ZM389.54 284.758L389.827 285.716L282.654 317.849L282.367 316.891L282.079 315.933L389.253 283.8L389.54 284.758ZM415.29 175.875L416.264 176.105L390.513 284.988L389.54 284.758L388.567 284.527L414.317 175.644L415.29 175.875ZM411.764 191.412L410.807 191.699L410.751 191.515L411.709 191.227L412.667 190.94L412.722 191.125L411.764 191.412ZM304.322 223.424L305.28 223.137L305.336 223.321L304.378 223.609L303.42 223.897L303.365 223.712L304.322 223.424ZM408.079 206.998L407.121 207.286L407.065 207.101L408.023 206.813L408.981 206.526L409.036 206.71L408.079 206.998ZM300.636 239.01L301.594 238.722L301.649 238.906L300.692 239.195L299.734 239.483L299.679 239.299L300.636 239.01ZM404.392 222.584L403.434 222.87L403.379 222.686L404.337 222.399L405.295 222.112L405.35 222.297L404.392 222.584ZM296.95 254.596L297.908 254.308L297.964 254.493L297.006 254.78L296.048 255.068L295.993 254.883L296.95 254.596ZM400.706 238.169L399.749 238.457L399.693 238.272L400.651 237.985L401.609 237.697L401.664 237.882L400.706 238.169ZM293.264 270.182L294.222 269.894L294.278 270.078L293.32 270.366L292.362 270.654L292.307 270.47L293.264 270.182ZM397.021 253.755L396.063 254.043L396.007 253.858L396.965 253.57L397.923 253.283L397.978 253.467L397.021 253.755ZM289.579 285.767L290.536 285.48L290.592 285.664L289.634 285.952L288.676 286.239L288.621 286.055L289.579 285.767ZM393.335 269.341L392.377 269.628L392.321 269.444L393.279 269.156L394.237 268.868L394.292 269.053L393.335 269.341ZM285.893 301.353L286.85 301.065L286.906 301.25L285.948 301.537L284.99 301.825L284.935 301.64L285.893 301.353ZM397.621 181.123L397.391 182.096L397.203 182.052L397.433 181.079L397.663 180.105L397.851 180.15L397.621 181.123ZM371.627 290.178L371.857 289.205L372.045 289.249L371.815 290.222L371.585 291.195L371.397 291.151L371.627 290.178ZM379.723 186.489L379.493 187.462L379.305 187.418L379.535 186.445L379.766 185.472L379.953 185.516L379.723 186.489ZM353.729 295.544L353.96 294.571L354.147 294.615L353.917 295.588L353.687 296.561L353.499 296.517L353.729 295.544ZM361.825 191.855L361.595 192.828L361.408 192.784L361.638 191.811L361.868 190.838L362.056 190.882L361.825 191.855ZM335.832 300.91L336.062 299.937L336.25 299.981L336.019 300.954L335.789 301.927L335.602 301.883L335.832 300.91ZM343.928 197.221L343.697 198.195L343.51 198.15L343.74 197.177L343.97 196.204L344.158 196.248L343.928 197.221ZM317.934 306.276L318.164 305.303L318.352 305.347L318.122 306.32L317.891 307.294L317.704 307.249L317.934 306.276ZM326.03 202.588L325.8 203.561L325.612 203.516L325.842 202.543L326.072 201.57L326.26 201.614L326.03 202.588ZM300.036 311.642L300.266 310.669L300.454 310.713L300.224 311.686L299.994 312.66L299.806 312.615L300.036 311.642ZM282.171 316.844L281.485 317.572L200.065 240.83L200.751 240.102L201.436 239.374L282.857 316.116L282.171 316.844ZM200.751 240.102L199.777 239.872L225.536 130.99L226.509 131.221L227.482 131.451L201.724 240.332L200.751 240.102ZM285.847 301.514L285.12 300.827L285.252 300.687L285.98 301.373L286.707 302.06L286.574 302.2L285.847 301.514ZM204.397 224.478L205.124 225.165L204.992 225.305L204.265 224.618L203.537 223.932L203.67 223.792L204.397 224.478ZM289.534 285.928L288.807 285.242L288.939 285.102L289.667 285.788L290.394 286.474L290.262 286.614L289.534 285.928ZM208.084 208.893L208.812 209.579L208.68 209.719L207.952 209.033L207.224 208.348L207.356 208.207L208.084 208.893ZM293.221 270.343L292.494 269.656L292.626 269.516L293.354 270.203L294.081 270.889L293.949 271.029L293.221 270.343ZM211.771 193.307L212.499 193.994L212.367 194.134L211.639 193.448L210.912 192.762L211.044 192.621L211.771 193.307ZM296.909 254.757L296.181 254.071L296.313 253.931L297.041 254.617L297.768 255.303L297.636 255.444L296.909 254.757ZM215.459 177.722L216.186 178.408L216.054 178.548L215.326 177.862L214.599 177.176L214.731 177.036L215.459 177.722ZM300.596 239.172L299.868 238.486L300 238.346L300.728 239.032L301.455 239.718L301.323 239.858L300.596 239.172ZM219.146 162.137L219.873 162.823L219.741 162.963L219.013 162.277L218.286 161.591L218.418 161.451L219.146 162.137ZM304.283 223.586L303.555 222.9L303.688 222.76L304.415 223.446L305.142 224.132L305.01 224.273L304.283 223.586ZM222.833 146.551L223.561 147.237L223.428 147.377L222.701 146.692L221.973 146.006L222.105 145.865L222.833 146.551ZM240.143 143.874L239.913 144.847L239.725 144.802L239.955 143.829L240.185 142.856L240.373 142.9L240.143 143.874ZM214.149 252.928L214.379 251.955L214.567 251.999L214.337 252.973L214.107 253.946L213.919 253.901L214.149 252.928ZM253.74 156.689L253.509 157.662L253.322 157.618L253.552 156.645L253.782 155.672L253.97 155.716L253.74 156.689ZM227.746 265.744L227.976 264.771L228.164 264.815L227.934 265.788L227.703 266.761L227.516 266.717L227.746 265.744ZM267.337 169.505L267.107 170.478L266.919 170.434L267.149 169.461L267.379 168.488L267.567 168.532L267.337 169.505ZM241.343 278.56L241.573 277.587L241.761 277.631L241.531 278.604L241.301 279.577L241.113 279.533L241.343 278.56ZM280.934 182.321L280.704 183.294L280.516 183.25L280.746 182.277L280.976 181.304L281.164 181.348L280.934 182.321ZM254.94 291.376L255.17 290.403L255.358 290.447L255.128 291.42L254.898 292.393L254.71 292.349L254.94 291.376ZM294.531 195.137L294.301 196.11L294.113 196.066L294.343 195.092L294.573 194.119L294.761 194.164L294.531 195.137ZM268.537 304.191L268.767 303.218L268.955 303.263L268.725 304.236L268.495 305.209L268.307 305.165L268.537 304.191ZM415.235 175.69L415.522 176.648L414.585 176.929L414.298 175.971L414.01 175.013L414.948 174.732L415.235 175.69ZM414.298 175.971L414.585 176.929L308.349 208.781L308.062 207.823L307.775 206.865L414.01 175.013L414.298 175.971ZM308.062 207.823L307.376 208.55L267.685 171.14L268.371 170.412L269.056 169.684L308.748 207.095L308.062 207.823ZM268.371 170.412L267.685 171.14L225.964 131.81L226.65 131.082L227.336 130.355L269.057 169.684L268.371 170.412ZM282.367 316.891L281.393 316.66L307.142 207.786L308.115 208.017L309.088 208.247L283.34 317.121L282.367 316.891ZM308.115 208.017L307.828 207.059L414.035 175.207L414.322 176.165L414.609 177.123L308.402 208.974L308.115 208.017ZM414.322 176.165L414.035 175.207L415.003 174.917L415.29 175.875L415.578 176.832L414.609 177.123L414.322 176.165ZM307.928 207.968L308.902 208.198L283.144 317.074L282.171 316.844L281.198 316.614L306.955 207.737L307.928 207.968ZM226.509 131.221L227.195 130.493L268.034 168.985L267.348 169.713L266.662 170.441L225.823 131.948L226.509 131.221ZM267.348 169.713L268.034 168.985L308.614 207.24L307.928 207.968L307.243 208.695L266.662 170.441L267.348 169.713ZM308.013 208.047L308.587 209.963L307.481 210.295L306.641 209.503L308.013 208.047ZM415.61 175.778L416.982 174.323L419.503 176.699L416.185 177.694L415.61 175.778ZM333.872 98.7247L333.295 96.8097L334.402 96.476L335.244 97.2694L333.872 98.7247ZM333.819 98.7407L334.396 100.656L334.393 100.656L333.819 98.7407ZM226.274 130.993L224.902 132.449L222.382 130.073L225.7 129.078L226.274 130.993ZM308.064 207.831L308.639 209.746L307.533 210.078L306.692 209.286L308.064 207.831ZM282.102 317.171L282.676 319.087L279.358 320.082L280.156 316.711L282.102 317.171ZM389.702 284.911L391.648 285.371L391.382 286.495L390.276 286.826L389.702 284.911ZM415.555 175.594L414.981 173.678L418.299 172.683L417.501 176.054L415.555 175.594ZM307.955 207.855L306.009 207.394L306.275 206.271L307.381 205.939L307.955 207.855ZM308.117 208.007L306.171 207.547L306.437 206.423L307.543 206.092L308.117 208.007ZM282.281 317.214L284.228 317.674L283.43 321.045L280.91 318.669L282.281 317.214ZM308.143 207.899L309.512 206.441L310.355 207.234L310.089 208.359L308.143 207.899ZM308.102 207.861L306.733 209.319L306.73 209.316L308.102 207.861ZM226.398 130.851L224.452 130.391L225.25 127.02L227.77 129.396L226.398 130.851ZM200.537 240.166L199.17 241.626L198.324 240.834L198.591 239.706L200.537 240.166ZM200.578 240.204L201.945 238.744L201.949 238.749L200.578 240.204ZM307.93 207.963L309.301 206.508L310.142 207.3L309.876 208.423L307.93 207.963ZM414.298 175.971L413.723 174.055L413.723 174.055L414.298 175.971ZM308.062 207.823L307.487 205.907L308.593 205.575L309.434 206.367L308.062 207.823ZM268.371 170.412L269.742 168.957L269.742 168.957L268.371 170.412ZM308.115 208.017L310.061 208.477L310.061 208.477L308.115 208.017ZM414.322 176.165L414.897 178.081L414.896 178.081L414.322 176.165ZM307.928 207.968L305.982 207.507L305.982 207.507L307.928 207.968ZM267.348 169.713L265.976 171.169L265.976 171.168L267.348 169.713ZM333.872 98.7247L334.449 100.64L334.396 100.656L333.819 98.7407L333.241 96.8258L333.295 96.8097L333.872 98.7247ZM333.819 98.7407L334.393 100.656L226.849 132.909L226.274 130.993L225.7 129.078L333.244 96.825L333.819 98.7407ZM389.702 284.911L387.755 284.45L413.609 175.134L415.555 175.594L417.501 176.054L391.648 285.371L389.702 284.911ZM308.143 207.899L306.773 209.357L306.733 209.319L308.102 207.861L309.472 206.403L309.512 206.441L308.143 207.899ZM226.398 130.851L228.345 131.312L202.483 240.626L200.537 240.166L198.591 239.706L224.452 130.391L226.398 130.851ZM200.537 240.166L201.904 238.706L201.945 238.744L200.578 240.204L199.211 241.664L199.17 241.626L200.537 240.166ZM200.578 240.204L201.949 238.749L283.653 315.758L282.281 317.214L280.91 318.669L199.206 241.659L200.578 240.204ZM415.61 175.778L414.239 177.234L332.5 100.18L333.872 98.7247L335.244 97.2694L416.982 174.323L415.61 175.778ZM282.102 317.171L281.528 315.256L389.127 282.995L389.702 284.911L390.276 286.826L282.676 319.087L282.102 317.171ZM308.064 207.831L306.692 209.286L266.999 171.867L268.371 170.412L269.742 168.957L309.436 206.375L308.064 207.831ZM308.102 207.861L306.73 209.316L306.69 209.278L308.062 207.823L309.434 206.367L309.474 206.406L308.102 207.861ZM268.371 170.412L266.999 171.867L225.027 132.307L226.398 130.851L227.77 129.396L269.742 168.957L268.371 170.412ZM415.555 175.594L416.129 177.51L414.872 177.887L414.298 175.971L413.723 174.055L414.981 173.678L415.555 175.594ZM308.062 207.823L308.636 209.738L308.53 209.77L307.955 207.855L307.381 205.939L307.487 205.907L308.062 207.823ZM414.298 175.971L414.872 177.887L308.639 209.746L308.064 207.831L307.49 205.915L413.723 174.055L414.298 175.971ZM308.117 208.007L307.543 206.092L413.748 174.249L414.322 176.165L414.896 178.081L308.692 209.923L308.117 208.007ZM308.013 208.047L307.438 206.132L307.541 206.101L308.115 208.017L308.69 209.932L308.587 209.963L308.013 208.047ZM414.322 176.165L413.747 174.249L415.036 173.863L415.61 175.778L416.185 177.694L414.897 178.081L414.322 176.165ZM282.281 317.214L280.335 316.753L306.169 207.556L308.115 208.017L310.061 208.477L284.228 317.674L282.281 317.214ZM308.115 208.017L306.169 207.556L306.197 207.439L308.143 207.899L310.089 208.359L310.061 208.477L308.115 208.017ZM308.115 208.017L306.169 207.556L306.171 207.547L308.117 208.007L310.064 208.468L310.061 208.477L308.115 208.017ZM267.348 169.713L268.72 168.258L309.301 206.508L307.93 207.963L306.558 209.418L265.976 171.169L267.348 169.713ZM226.274 130.993L227.646 129.538L268.72 168.258L267.348 169.713L265.976 171.168L224.902 132.449L226.274 130.993ZM307.928 207.968L309.3 206.512L309.385 206.592L308.013 208.047L306.641 209.503L306.557 209.423L307.928 207.968ZM307.93 207.963L309.876 208.423L309.875 208.428L307.928 207.968L305.982 207.507L305.983 207.503L307.93 207.963ZM307.955 207.855L309.901 208.315L309.875 208.428L307.928 207.968L305.982 207.507L306.009 207.394L307.955 207.855ZM307.928 207.968L309.875 208.428L284.048 317.632L282.102 317.171L280.156 316.711L305.982 207.507L307.928 207.968Z" fill="url(#paint9_linear_45_2154)" mask="url(#path-6-inside-2_45_2154)"/>
</g>
</g>
<defs>
<linearGradient id="paint0_linear_45_2154" x1="49.3899" y1="733.647" x2="708.617" y2="1265.88" gradientUnits="userSpaceOnUse">
<stop stop-color="#E6ECFC"/>
<stop offset="1" stop-color="#F6F6FE"/>
</linearGradient>
<linearGradient id="paint1_linear_45_2154" x1="9.99999" y1="30.5659" x2="9.99999" y2="774.566" gradientUnits="userSpaceOnUse">
<stop stop-color="#E6ECFC"/>
<stop offset="1" stop-color="#F6F6FE"/>
</linearGradient>
<linearGradient id="paint2_linear_45_2154" x1="644.505" y1="268.928" x2="740.928" y2="676.571" gradientUnits="userSpaceOnUse">
<stop stop-color="#F1F4FD"/>
<stop offset="1" stop-color="#F0F4FD"/>
</linearGradient>
<linearGradient id="paint3_linear_45_2154" x1="644.505" y1="268.928" x2="740.928" y2="676.571" gradientUnits="userSpaceOnUse">
<stop stop-color="#DEE9FC"/>
<stop offset="1" stop-color="#F2F4FC"/>
</linearGradient>
<linearGradient id="paint4_linear_45_2154" x1="644.505" y1="268.928" x2="740.928" y2="676.571" gradientUnits="userSpaceOnUse">
<stop stop-color="#E5ECFB"/>
<stop offset="1" stop-color="#E7EEFB"/>
</linearGradient>
<linearGradient id="paint5_linear_45_2154" x1="644.505" y1="268.928" x2="740.928" y2="676.571" gradientUnits="userSpaceOnUse">
<stop stop-color="white"/>
<stop offset="1" stop-color="white" stop-opacity="0.2"/>
</linearGradient>
<linearGradient id="paint6_linear_45_2154" x1="333.872" y1="98.7247" x2="282.196" y2="317.194" gradientUnits="userSpaceOnUse">
<stop stop-color="#F1F4FD"/>
<stop offset="1" stop-color="#F0F4FD"/>
</linearGradient>
<linearGradient id="paint7_linear_45_2154" x1="333.872" y1="98.7247" x2="282.196" y2="317.194" gradientUnits="userSpaceOnUse">
<stop stop-color="#DEE9FC"/>
<stop offset="1" stop-color="#F2F4FC"/>
</linearGradient>
<linearGradient id="paint8_linear_45_2154" x1="333.872" y1="98.7247" x2="282.196" y2="317.194" gradientUnits="userSpaceOnUse">
<stop stop-color="#E5ECFB"/>
<stop offset="1" stop-color="#E7EEFB"/>
</linearGradient>
<linearGradient id="paint9_linear_45_2154" x1="333.872" y1="98.7247" x2="282.196" y2="317.194" gradientUnits="userSpaceOnUse">
<stop stop-color="white"/>
<stop offset="1" stop-color="white" stop-opacity="0.2"/>
</linearGradient>
<clipPath id="clip0_45_2154">
<rect width="1207.6" height="1070" fill="white" transform="translate(-248)"/>
</clipPath>
<clipPath id="clip1_45_2154">
<rect width="443.439" height="443.439" fill="white" transform="translate(426 308.073) rotate(-13.308)"/>
</clipPath>
<clipPath id="clip2_45_2154">
<rect width="237.653" height="237.653" fill="white" transform="matrix(-0.973147 -0.230186 -0.230186 0.973147 450.975 119.704)"/>
</clipPath>
</defs>
</svg>
