<svg width="422" height="460" viewBox="0 0 422 460" fill="none" xmlns="http://www.w3.org/2000/svg">
<g clip-path="url(#clip0_1_1461)">
<mask id="path-1-inside-1_1_1461" fill="white">
<path d="M229.643 229.802L229.497 229.69L77.6836 113.443L75.8419 112.032L254.729 37.7079L254.805 37.7663L408.53 155.477L318.639 192.826L229.828 229.725L229.643 229.802ZM76.5013 112.118L77.8416 113.145L229.693 229.421L316.563 193.328L407.87 155.391L254.679 38.0884L76.5013 112.118Z"/>
<path d="M204.763 421.607L50.9534 303.849L76.044 111.769L77.8416 113.145L229.702 229.41L229.854 229.526L229.828 229.725L204.763 421.607ZM51.308 303.702L204.508 420.993L229.497 229.69L229.499 229.674L77.6836 113.443L76.2992 112.383L51.308 303.702Z"/>
<path d="M204.448 421.566L229.497 229.69L229.524 229.483L229.613 229.447L229.702 229.41L316.563 193.328L408.417 155.172L383.34 347.255L383.252 347.291L204.448 421.566ZM229.829 229.717L229.828 229.725L204.852 421.038L383.035 347.021L408.012 155.7L318.639 192.826L229.829 229.717Z"/>
<path d="M76.5013 112.118L77.8416 113.145L229.702 229.41L316.563 193.328L407.87 155.391L254.679 38.0884L76.5013 112.118Z"/>
<path d="M51.308 303.702L204.508 420.993L229.497 229.69L77.6836 113.443L76.2992 112.383L51.308 303.702Z"/>
<path d="M229.828 229.725L204.852 421.038L383.035 347.021L408.012 155.7L318.639 192.826L229.828 229.725Z"/>
</mask>
<path d="M229.643 229.802L229.497 229.69L77.6836 113.443L75.8419 112.032L254.729 37.7079L254.805 37.7663L408.53 155.477L318.639 192.826L229.828 229.725L229.643 229.802ZM76.5013 112.118L77.8416 113.145L229.693 229.421L316.563 193.328L407.87 155.391L254.679 38.0884L76.5013 112.118Z" fill="#EEF3FD"/>
<path d="M204.763 421.607L50.9534 303.849L76.044 111.769L77.8416 113.145L229.702 229.41L229.854 229.526L229.828 229.725L204.763 421.607ZM51.308 303.702L204.508 420.993L229.497 229.69L229.499 229.674L77.6836 113.443L76.2992 112.383L51.308 303.702Z" fill="#EEF3FD"/>
<path d="M204.448 421.566L229.497 229.69L229.524 229.483L229.613 229.447L229.702 229.41L316.563 193.328L408.417 155.172L383.34 347.255L383.252 347.291L204.448 421.566ZM229.829 229.717L229.828 229.725L204.852 421.038L383.035 347.021L408.012 155.7L318.639 192.826L229.829 229.717Z" fill="#EEF3FD"/>
<path d="M76.5013 112.118L77.8416 113.145L229.702 229.41L316.563 193.328L407.87 155.391L254.679 38.0884L76.5013 112.118Z" fill="url(#paint0_linear_1_1461)"/>
<path d="M51.308 303.702L204.508 420.993L229.497 229.69L77.6836 113.443L76.2992 112.383L51.308 303.702Z" fill="url(#paint1_linear_1_1461)"/>
<path d="M229.828 229.725L204.852 421.038L383.035 347.021L408.012 155.7L318.639 192.826L229.828 229.725Z" fill="url(#paint2_linear_1_1461)"/>
<path d="M76.5013 112.118L76.1176 111.195L74.5183 111.859L75.8933 112.912L76.5013 112.118ZM407.87 155.391L408.254 156.315L409.853 155.65L408.478 154.597L407.87 155.391ZM254.679 38.0884L255.287 37.2944L254.828 36.9434L254.295 37.1649L254.679 38.0884ZM51.308 303.702L50.3165 303.572L50.2417 304.145L50.7001 304.496L51.308 303.702ZM204.508 420.993L203.9 421.787L205.276 422.84L205.5 421.123L204.508 420.993ZM76.2992 112.383L76.9071 111.589L75.532 110.536L75.3077 112.253L76.2992 112.383ZM204.852 421.038L203.861 420.908L203.637 422.626L205.236 421.961L204.852 421.038ZM383.035 347.021L383.419 347.945L383.952 347.723L384.027 347.151L383.035 347.021ZM408.012 155.7L409.004 155.83L409.228 154.112L407.629 154.777L408.012 155.7ZM77.8416 113.145L77.2337 113.939L77.2337 113.939L77.8416 113.145ZM229.702 229.41L229.094 230.204L229.552 230.555L230.085 230.333L229.702 229.41ZM316.563 193.328L316.947 194.251L316.947 194.251L316.563 193.328ZM229.497 229.69L230.489 229.82L230.564 229.247L230.105 228.896L229.497 229.69ZM77.6836 113.443L78.2916 112.649L78.2915 112.649L77.6836 113.443ZM229.828 229.725L229.445 228.801L228.911 229.023L228.837 229.596L229.828 229.725ZM318.639 192.826L318.255 191.902L318.255 191.902L318.639 192.826ZM407.87 155.391L408.478 154.597L255.287 37.2944L254.679 38.0884L254.071 38.8824L407.262 156.185L407.87 155.391ZM254.679 38.0884L254.295 37.1649L76.1176 111.195L76.5013 112.118L76.885 113.042L255.063 39.0119L254.679 38.0884ZM101.819 131.81L102.743 131.426L102.615 131.119L101.692 131.503L100.768 131.887L100.896 132.194L101.819 131.81ZM280.224 57.3259L279.3 57.7099L279.428 58.0168L280.351 57.6328L281.275 57.2489L281.147 56.942L280.224 57.3259ZM127.396 151.407L128.32 151.023L128.192 150.716L127.269 151.1L126.345 151.484L126.473 151.791L127.396 151.407ZM305.801 76.9229L304.877 77.3069L305.005 77.6138L305.928 77.2298L306.851 76.8457L306.724 76.5389L305.801 76.9229ZM152.984 170.997L153.907 170.613L153.779 170.306L152.856 170.69L151.933 171.074L152.06 171.381L152.984 170.997ZM331.388 96.5131L330.465 96.8971L330.592 97.2039L331.516 96.82L332.439 96.436L332.312 96.1291L331.388 96.5131ZM178.572 190.579L179.496 190.195L179.368 189.888L178.445 190.272L177.521 190.655L177.649 190.963L178.572 190.579ZM356.977 116.095L356.053 116.479L356.181 116.785L357.104 116.401L358.028 116.017L357.9 115.711L356.977 116.095ZM204.149 210.176L205.072 209.792L204.945 209.485L204.022 209.869L203.098 210.253L203.226 210.56L204.149 210.176ZM382.554 135.692L381.63 136.075L381.758 136.382L382.681 135.998L383.605 135.614L383.477 135.308L382.554 135.692ZM105.826 99.8443L106.62 100.453L106.822 100.189L106.028 99.5806L105.235 98.9722L105.032 99.2358L105.826 99.8443ZM259.525 217.117L258.731 216.509L258.529 216.772L259.322 217.381L260.116 217.989L260.318 217.725L259.525 217.117ZM135.581 87.4816L136.375 88.0898L136.577 87.826L135.783 87.2178L134.99 86.6095L134.788 86.8734L135.581 87.4816ZM289.28 204.754L288.486 204.146L288.284 204.409L289.078 205.018L289.871 205.626L290.073 205.363L289.28 204.754ZM165.337 75.1189L166.13 75.7271L166.332 75.4633L165.539 74.8551L164.745 74.2469L164.543 74.5107L165.337 75.1189ZM319.035 192.391L318.242 191.783L318.039 192.047L318.833 192.655L319.627 193.263L319.829 192.999L319.035 192.391ZM195.092 62.7559L195.886 63.3641L196.088 63.1003L195.294 62.4921L194.5 61.8838L194.298 62.1476L195.092 62.7559ZM348.791 180.028L347.997 179.42L347.795 179.684L348.589 180.292L349.382 180.901L349.584 180.637L348.791 180.028ZM224.847 50.3932L225.641 51.0014L225.843 50.7376L225.049 50.1294L224.255 49.5212L224.053 49.785L224.847 50.3932ZM378.546 167.665L377.752 167.057L377.55 167.321L378.344 167.929L379.138 168.537L379.34 168.273L378.546 167.665ZM51.308 303.702L50.7001 304.496L203.9 421.787L204.508 420.993L205.116 420.199L51.916 302.908L51.308 303.702ZM76.2992 112.383L75.3077 112.253L50.3165 303.572L51.308 303.702L52.2996 303.831L77.2908 112.512L76.2992 112.383ZM72.4933 139.593L73.2872 140.201L73.4894 139.937L72.6954 139.329L71.9015 138.721L71.6993 138.985L72.4933 139.593ZM226.201 256.854L225.407 256.246L225.205 256.509L225.999 257.118L226.792 257.726L226.995 257.462L226.201 256.854ZM68.9158 166.979L69.7096 167.587L69.9118 167.323L69.118 166.715L68.3242 166.107L68.1221 166.371L68.9158 166.979ZM222.624 284.24L221.83 283.631L221.628 283.895L222.421 284.503L223.214 285.112L223.417 284.849L222.624 284.24ZM65.3388 194.365L66.1331 194.972L66.335 194.708L65.5408 194.101L64.7465 193.493L64.5446 193.757L65.3388 194.365ZM219.046 311.625L218.252 311.017L218.05 311.281L218.844 311.889L219.638 312.497L219.84 312.234L219.046 311.625ZM61.7616 221.75L62.5554 222.358L62.7575 222.094L61.9638 221.486L61.17 220.878L60.9679 221.142L61.7616 221.75ZM215.469 339.011L214.675 338.403L214.473 338.666L215.267 339.275L216.06 339.883L216.262 339.62L215.469 339.011ZM58.1842 249.136L58.9779 249.744L59.1801 249.48L58.3863 248.872L57.5926 248.264L57.3904 248.528L58.1842 249.136ZM211.891 366.397L211.098 365.789L210.896 366.052L211.689 366.661L212.483 367.269L212.685 367.005L211.891 366.397ZM54.607 276.521L55.4008 277.13L55.6029 276.866L54.8091 276.258L54.0154 275.649L53.8132 275.913L54.607 276.521ZM208.314 393.782L207.52 393.174L207.318 393.438L208.112 394.046L208.906 394.654L209.108 394.391L208.314 393.782ZM101.587 131.641L101.458 132.633L101.788 132.676L101.917 131.684L102.047 130.692L101.717 130.649L101.587 131.641ZM76.8833 323.385L77.0128 322.394L76.6831 322.351L76.5536 323.342L76.4241 324.334L76.7539 324.377L76.8833 323.385ZM127.172 151.228L127.042 152.22L127.372 152.263L127.501 151.271L127.631 150.28L127.301 150.237L127.172 151.228ZM102.468 342.972L102.597 341.981L102.267 341.938L102.138 342.929L102.008 343.921L102.338 343.964L102.468 342.972ZM152.756 170.816L152.626 171.807L152.956 171.85L153.085 170.859L153.215 169.867L152.885 169.824L152.756 170.816ZM128.052 362.56L128.181 361.568L127.851 361.525L127.722 362.517L127.592 363.508L127.922 363.552L128.052 362.56ZM178.34 190.403L178.211 191.395L178.54 191.438L178.67 190.446L178.799 189.455L178.47 189.412L178.34 190.403ZM153.636 382.147L153.765 381.156L153.436 381.113L153.306 382.104L153.177 383.096L153.506 383.139L153.636 382.147ZM203.924 209.991L203.795 210.982L204.125 211.025L204.254 210.034L204.384 209.042L204.054 208.999L203.924 209.991ZM179.22 401.735L179.35 400.743L179.02 400.7L178.891 401.692L178.761 402.683L179.091 402.726L179.22 401.735ZM204.852 421.038L205.236 421.961L383.419 347.945L383.035 347.021L382.652 346.098L204.469 420.114L204.852 421.038ZM383.035 347.021L384.027 347.151L409.004 155.83L408.012 155.7L407.021 155.571L382.044 346.892L383.035 347.021ZM208.289 394.069L209.212 393.685L209.085 393.378L208.161 393.762L207.238 394.147L207.366 394.454L208.289 394.069ZM386.699 319.599L385.776 319.983L385.904 320.29L386.827 319.905L387.75 319.521L387.623 319.214L386.699 319.599ZM211.864 366.683L212.788 366.299L212.66 365.993L211.737 366.377L210.813 366.761L210.941 367.067L211.864 366.683ZM390.274 292.213L389.351 292.596L389.478 292.903L390.402 292.52L391.325 292.136L391.198 291.829L390.274 292.213ZM215.44 339.298L216.363 338.913L216.235 338.607L215.312 338.991L214.389 339.375L214.516 339.682L215.44 339.298ZM393.85 264.827L392.926 265.21L393.054 265.517L393.977 265.133L394.901 264.75L394.773 264.443L393.85 264.827ZM219.015 311.911L219.938 311.527L219.811 311.221L218.887 311.605L217.964 311.989L218.092 312.295L219.015 311.911ZM397.425 237.441L396.502 237.824L396.629 238.131L397.553 237.748L398.476 237.364L398.348 237.057L397.425 237.441ZM222.59 284.526L223.514 284.142L223.386 283.835L222.463 284.219L221.539 284.603L221.667 284.909L222.59 284.526ZM401 210.055L400.077 210.439L400.204 210.746L401.128 210.362L402.051 209.978L401.923 209.671L401 210.055ZM226.166 257.14L227.089 256.756L226.962 256.449L226.038 256.833L225.115 257.217L225.242 257.524L226.166 257.14ZM404.575 182.669L403.652 183.052L403.78 183.359L404.703 182.976L405.626 182.592L405.499 182.285L404.575 182.669ZM378.297 167.776L378.167 168.767L378.497 168.811L378.627 167.819L378.756 166.827L378.426 166.784L378.297 167.776ZM353.593 359.52L353.722 358.529L353.392 358.485L353.263 359.477L353.133 360.469L353.463 360.512L353.593 359.52ZM348.541 180.137L348.411 181.128L348.741 181.171L348.871 180.18L349 179.188L348.67 179.145L348.541 180.137ZM323.837 371.881L323.966 370.889L323.636 370.846L323.507 371.837L323.378 372.829L323.707 372.872L323.837 371.881ZM318.784 192.497L318.655 193.489L318.985 193.532L319.114 192.54L319.244 191.549L318.914 191.506L318.784 192.497ZM294.08 384.241L294.21 383.25L293.88 383.207L293.75 384.198L293.621 385.19L293.951 385.233L294.08 384.241ZM289.028 204.858L288.899 205.849L289.228 205.893L289.358 204.901L289.487 203.909L289.158 203.866L289.028 204.858ZM264.324 396.602L264.454 395.61L264.124 395.567L263.994 396.559L263.865 397.55L264.195 397.593L264.324 396.602ZM259.272 217.218L259.142 218.21L259.472 218.253L259.602 217.262L259.731 216.27L259.401 216.227L259.272 217.218ZM234.568 408.962L234.697 407.971L234.368 407.928L234.238 408.919L234.109 409.911L234.438 409.954L234.568 408.962ZM76.5013 112.118L75.8933 112.912L77.2337 113.939L77.8416 113.145L78.4496 112.351L77.1092 111.324L76.5013 112.118ZM77.8416 113.145L77.2337 113.939L229.094 230.204L229.702 229.41L230.31 228.616L78.4495 112.351L77.8416 113.145ZM229.702 229.41L230.085 230.333L316.947 194.251L316.563 193.328L316.18 192.404L229.318 228.486L229.702 229.41ZM316.563 193.328L316.947 194.251L408.254 156.315L407.87 155.391L407.487 154.468L316.18 192.404L316.563 193.328ZM204.508 420.993L205.5 421.123L230.489 229.82L229.497 229.69L228.506 229.561L203.517 420.864L204.508 420.993ZM229.497 229.69L230.105 228.896L78.2916 112.649L77.6836 113.443L77.0757 114.237L228.889 230.484L229.497 229.69ZM77.6836 113.443L78.2915 112.649L76.9071 111.589L76.2992 112.383L75.6913 113.177L77.0757 114.237L77.6836 113.443ZM229.828 229.725L228.837 229.596L203.861 420.908L204.852 421.038L205.844 421.167L230.82 229.854L229.828 229.725ZM408.012 155.7L407.629 154.777L318.255 191.902L318.639 192.826L319.023 193.749L408.396 156.624L408.012 155.7ZM318.639 192.826L318.255 191.902L229.445 228.801L229.828 229.725L230.212 230.648L319.023 193.749L318.639 192.826ZM229.643 229.802L228.427 231.39L229.344 232.092L230.411 231.649L229.643 229.802ZM75.8419 112.032L75.0746 110.185L71.8759 111.514L74.626 113.62L75.8419 112.032ZM254.729 37.7079L255.947 36.1216L255.029 35.4172L253.961 35.861L254.729 37.7079ZM254.805 37.7663L253.587 39.3527L253.589 39.3543L254.805 37.7663ZM408.53 155.477L409.297 157.324L412.496 155.995L409.746 153.889L408.53 155.477ZM229.693 229.421L228.477 231.009L229.394 231.711L230.46 231.268L229.693 229.421ZM204.763 421.607L203.548 423.195L206.298 425.301L206.747 421.866L204.763 421.607ZM50.9534 303.849L48.9702 303.59L48.8206 304.735L49.7376 305.437L50.9534 303.849ZM76.044 111.768L77.2599 110.18L74.5095 108.075L74.0609 111.509L76.044 111.768ZM229.854 229.526L231.837 229.785L231.987 228.64L231.07 227.938L229.854 229.526ZM229.499 229.674L231.483 229.933L231.632 228.788L230.715 228.086L229.499 229.674ZM204.448 421.566L202.465 421.307L202.017 424.742L205.215 423.413L204.448 421.566ZM229.524 229.483L228.76 227.635L227.691 228.077L227.541 229.224L229.524 229.483ZM229.613 229.447L230.377 231.295L230.38 231.294L229.613 229.447ZM408.417 155.172L410.4 155.431L410.848 151.996L407.65 153.325L408.417 155.172ZM383.34 347.255L384.101 349.105L385.173 348.663L385.323 347.514L383.34 347.255ZM383.252 347.291L382.491 345.442L382.484 345.444L383.252 347.291ZM229.829 229.717L229.062 227.87L227.996 228.313L227.846 229.458L229.829 229.717ZM77.8416 113.145L79.0575 111.557L79.0574 111.557L77.8416 113.145ZM229.702 229.41L230.918 227.822L230.001 227.12L228.935 227.563L229.702 229.41ZM316.563 193.328L315.796 191.481L315.796 191.481L316.563 193.328ZM229.497 229.69L227.514 229.431L227.514 229.431L229.497 229.69ZM77.6836 113.443L76.4677 115.03L76.4678 115.031L77.6836 113.443ZM229.828 229.725L231.811 229.984L231.811 229.984L229.828 229.725ZM318.639 192.826L319.406 194.673L319.406 194.672L318.639 192.826ZM254.729 37.7079L253.51 39.2942L253.587 39.3527L254.805 37.7663L256.023 36.18L255.947 36.1216L254.729 37.7079ZM254.805 37.7663L253.589 39.3543L407.314 157.065L408.53 155.477L409.746 153.889L256.021 36.1784L254.805 37.7663ZM50.9534 303.849L52.9365 304.108L78.0272 112.028L76.044 111.768L74.0609 111.509L48.9702 303.59L50.9534 303.849ZM229.524 229.483L230.289 231.332L230.377 231.295L229.613 229.447L228.849 227.598L228.76 227.635L229.524 229.483ZM408.417 155.172L406.434 154.913L381.357 346.996L383.34 347.255L385.323 347.514L410.4 155.431L408.417 155.172ZM383.34 347.255L382.579 345.405L382.491 345.442L383.252 347.291L384.013 349.141L384.101 349.105L383.34 347.255ZM383.252 347.291L382.484 345.444L203.681 419.719L204.448 421.566L205.215 423.413L384.019 349.138L383.252 347.291ZM75.8419 112.032L76.6093 113.879L255.496 39.5548L254.729 37.7079L253.961 35.861L75.0746 110.185L75.8419 112.032ZM204.763 421.607L205.979 420.019L52.1692 302.261L50.9534 303.849L49.7376 305.437L203.548 423.195L204.763 421.607ZM229.693 229.421L230.46 231.268L317.331 195.175L316.563 193.328L315.796 191.481L228.926 227.574L229.693 229.421ZM229.613 229.447L230.38 231.294L230.469 231.257L229.702 229.41L228.935 227.563L228.846 227.6L229.613 229.447ZM316.563 193.328L317.331 195.175L409.184 157.019L408.417 155.172L407.65 153.325L315.796 191.481L316.563 193.328ZM76.044 111.768L74.8282 113.357L76.6258 114.733L77.8416 113.145L79.0574 111.557L77.2599 110.18L76.044 111.768ZM229.702 229.41L228.486 230.998L228.638 231.114L229.854 229.526L231.07 227.938L230.918 227.822L229.702 229.41ZM77.8416 113.145L76.6257 114.733L228.477 231.009L229.693 229.421L230.909 227.833L79.0575 111.557L77.8416 113.145ZM229.499 229.674L230.715 228.086L78.8994 111.855L77.6836 113.443L76.4678 115.031L228.284 231.262L229.499 229.674ZM229.643 229.802L230.859 228.214L230.713 228.102L229.497 229.69L228.282 231.278L228.427 231.39L229.643 229.802ZM77.6836 113.443L78.8996 111.855L77.0579 110.444L75.8419 112.032L74.626 113.62L76.4677 115.03L77.6836 113.443ZM204.448 421.566L206.431 421.825L231.481 229.949L229.497 229.69L227.514 229.431L202.465 421.307L204.448 421.566ZM229.497 229.69L231.481 229.949L231.508 229.742L229.524 229.483L227.541 229.224L227.514 229.431L229.497 229.69ZM229.497 229.69L231.481 229.949L231.483 229.933L229.499 229.674L227.516 229.415L227.514 229.431L229.497 229.69ZM318.639 192.826L317.872 190.979L229.062 227.87L229.829 229.717L230.597 231.564L319.406 194.673L318.639 192.826ZM408.53 155.477L407.763 153.63L317.872 190.979L318.639 192.826L319.406 194.672L409.297 157.324L408.53 155.477ZM229.828 229.725L229.061 227.878L228.876 227.955L229.643 229.802L230.411 231.649L230.596 231.572L229.828 229.725ZM229.829 229.717L227.846 229.458L227.845 229.466L229.828 229.725L231.811 229.984L231.812 229.976L229.829 229.717ZM229.854 229.526L227.871 229.267L227.845 229.466L229.828 229.725L231.811 229.984L231.837 229.785L229.854 229.526ZM229.828 229.725L227.845 229.466L202.78 421.348L204.763 421.607L206.747 421.866L231.811 229.984L229.828 229.725Z" fill="url(#paint3_linear_1_1461)" mask="url(#path-1-inside-1_1_1461)"/>
</g>
<defs>
<linearGradient id="paint0_linear_1_1461" x1="254.728" y1="37.7079" x2="204.599" y2="421.586" gradientUnits="userSpaceOnUse">
<stop stop-color="#F1F4FD"/>
<stop offset="1" stop-color="#F0F4FD"/>
</linearGradient>
<linearGradient id="paint1_linear_1_1461" x1="254.728" y1="37.7079" x2="204.599" y2="421.586" gradientUnits="userSpaceOnUse">
<stop stop-color="#DEE9FC"/>
<stop offset="1" stop-color="#F2F4FC"/>
</linearGradient>
<linearGradient id="paint2_linear_1_1461" x1="254.728" y1="37.7079" x2="204.599" y2="421.586" gradientUnits="userSpaceOnUse">
<stop stop-color="#E5ECFB"/>
<stop offset="1" stop-color="#E7EEFB"/>
</linearGradient>
<linearGradient id="paint3_linear_1_1461" x1="254.728" y1="37.7079" x2="204.599" y2="421.586" gradientUnits="userSpaceOnUse">
<stop stop-color="white"/>
<stop offset="1" stop-color="white" stop-opacity="0.2"/>
</linearGradient>
<clipPath id="clip0_1_1461">
<rect width="409.824" height="409.824" fill="white" transform="translate(53.0675) rotate(7.44004)"/>
</clipPath>
</defs>
</svg>
