<svg width="126" height="50" viewBox="0 0 126 50" fill="none" xmlns="http://www.w3.org/2000/svg">
<g clip-path="url(#clip0_3315_1288)">
<path d="M78.9902 5.2865C70.4106 5.2865 62.7429 9.72676 62.7429 17.9286C62.7429 27.3357 76.3412 27.9853 76.3412 32.7118C76.3412 34.7019 74.0575 36.4831 70.1553 36.4831C64.619 36.4831 60.481 33.9942 60.481 33.9942L58.7101 42.2722C58.7101 42.2722 63.4772 44.3746 69.8058 44.3746C79.1862 44.3746 86.5684 39.717 86.5684 31.3738C86.5684 21.433 72.9132 20.8027 72.9132 16.4167C72.9132 14.8578 74.7881 13.1502 78.6782 13.1502C83.0678 13.1502 86.6482 14.9604 86.6482 14.9604L88.3816 6.96624C88.3816 6.96624 84.4842 5.2865 78.989 5.2865H78.9902ZM0.49101 5.89029L0.282959 7.09666C0.282959 7.09666 3.8924 7.756 7.14379 9.07226C11.3302 10.5805 11.6278 11.4596 12.333 14.1863L20.0151 43.7515H30.3136L46.1787 5.89029H35.9044L25.7099 31.6322L21.5501 9.81129C21.1691 7.31402 19.2361 5.88908 16.8714 5.88908H0.492219L0.49101 5.89029ZM50.3107 5.89029L42.2511 43.7515H52.0489L60.0794 5.89029H50.3107ZM104.955 5.89029C102.593 5.89029 101.341 7.15341 100.423 9.35966L86.0688 43.7515H96.3431L98.3305 38.0191H110.847L112.056 43.7515H121.122L113.213 5.89029H104.955ZM106.292 16.1197L109.338 30.3268H101.179L106.293 16.1197H106.292Z" fill="#374151"/>
</g>
<defs>
<clipPath id="clip0_3315_1288">
<rect width="121.252" height="39.1134" fill="white" transform="translate(0.223145 5.22607)"/>
</clipPath>
</defs>
</svg>
