<svg width="24" height="24" viewBox="0 0 24 24" fill="none" xmlns="http://www.w3.org/2000/svg">
<path d="M19.1995 14.7802C18.3395 15.5702 17.1995 16.0102 16.0295 16.0002H6.36948C2.29948 15.7102 2.28948 9.80016 6.36948 9.51016C6.38896 9.51016 6.40209 9.48958 6.39559 9.47122C4.19127 3.24375 11.3877 0.0431328 14.9751 3.28039C16.7462 4.87862 18.7684 6.90373 19.9877 8.95419C21.0573 10.7529 20.9624 13.2453 19.1995 14.7802Z" fill="#8BB0FF"/>
<path opacity="0.4" d="M18.75 21C18.75 21.41 18.41 21.75 18 21.75H14C13.95 21.75 13.91 21.75 13.86 21.73C13.57 22.47 12.84 23 12 23C11.16 23 10.43 22.47 10.14 21.73C10.09 21.75 10.05 21.75 10 21.75H6C5.59 21.75 5.25 21.41 5.25 21C5.25 20.59 5.59 20.25 6 20.25H10C10.05 20.25 10.09 20.25 10.14 20.27C10.34 19.75 10.75 19.34 11.27 19.14C11.25 19.09 11.25 19.05 11.25 19V16H12.75V19C12.75 19.05 12.75 19.09 12.73 19.14C13.25 19.34 13.66 19.75 13.86 20.27C13.91 20.25 13.95 20.25 14 20.25H18C18.41 20.25 18.75 20.59 18.75 21Z" fill="#8BB0FF"/>
</svg>
