<svg width="60" height="60" viewBox="0 0 60 60" fill="none" xmlns="http://www.w3.org/2000/svg">
<path opacity="0.4" d="M50.0024 20C52.7639 20 55.0024 22.2386 55.0024 25L55.0024 50C55.0024 52.7614 52.7639 55 50.0024 55C47.241 55 45.0024 52.7614 45.0024 50L45.0024 25C45.0024 22.2386 47.241 20 50.0024 20Z" fill="#8BB0FF"/>
<path opacity="0.4" d="M10.0024 40C12.7639 40 15.0024 42.2386 15.0024 45V50C15.0024 52.7614 12.7639 55 10.0024 55C7.24102 55 5.00244 52.7614 5.00244 50L5.00244 45C5.00244 42.2386 7.24102 40 10.0024 40Z" fill="#8BB0FF"/>
<path opacity="0.4" d="M30 30C32.7614 30 35 32.2386 35 35L35 50C35 52.7614 32.7614 55 30 55C27.2386 55 25 52.7614 25 50L25 35C25 32.2386 27.2386 30 30 30Z" fill="#8BB0FF"/>
<path fill-rule="evenodd" clip-rule="evenodd" d="M45.6276 5C45.6276 3.96447 46.4671 3.125 47.5026 3.125H52.5026C54.9189 3.125 56.8776 5.08375 56.8776 7.5V12.5C56.8776 13.5355 56.0382 14.375 55.0026 14.375C53.9671 14.375 53.1276 13.5355 53.1276 12.5V9.40278C43.4202 17.179 35.893 22.2308 28.6046 25.6112C21.1505 29.0685 14.0364 30.7359 5.2403 31.8599C4.21312 31.9911 3.27402 31.2648 3.14277 30.2377C3.01151 29.2105 3.73781 28.2714 4.76499 28.1401C13.3242 27.0464 20.0332 25.453 27.0268 22.2093C33.7996 19.068 40.9228 14.3404 50.284 6.875H47.5026C46.4671 6.875 45.6276 6.03553 45.6276 5Z" fill="#8BB0FF"/>
</svg>
