<svg width="37" height="39" viewBox="0 0 37 39" fill="none" xmlns="http://www.w3.org/2000/svg">
<path opacity="0.4" d="M34.6082 20.297C37.3528 22.9244 37.3528 27.4923 34.6082 30.1196C30.8245 33.7416 24.941 38.0417 18.3333 38.0417C11.7256 38.0417 5.84213 33.7416 2.05848 30.1196C-0.686159 27.4923 -0.68616 22.9244 2.05848 20.297C5.84213 16.6751 11.7256 12.375 18.3333 12.375C24.941 12.375 30.8245 16.6751 34.6082 20.297Z" fill="#8BB0FF"/>
<circle cx="18.3329" cy="25.2085" r="5.5" fill="#8BB0FF"/>
<path fill-rule="evenodd" clip-rule="evenodd" d="M18.3329 0C19.0923 0 19.7079 0.615608 19.7079 1.375V5.04167C19.7079 5.80106 19.0923 6.41667 18.3329 6.41667C17.5735 6.41667 16.9579 5.80106 16.9579 5.04167V1.375C16.9579 0.615608 17.5735 0 18.3329 0Z" fill="#8BB0FF"/>
<path fill-rule="evenodd" clip-rule="evenodd" d="M0.860614 5.90273C1.39758 5.36576 2.26819 5.36576 2.80516 5.90273L5.55516 8.65273C6.09213 9.1897 6.09213 10.0603 5.55516 10.5973C5.01819 11.1342 4.14758 11.1342 3.61061 10.5973L0.860614 7.84727C0.323643 7.3103 0.323643 6.4397 0.860614 5.90273ZM35.8052 5.90273C36.3421 6.4397 36.3421 7.3103 35.8052 7.84727L33.0552 10.5973C32.5182 11.1342 31.6476 11.1342 31.1106 10.5973C30.5736 10.0603 30.5736 9.1897 31.1106 8.65273L33.8606 5.90273C34.3976 5.36576 35.2682 5.36576 35.8052 5.90273Z" fill="#8BB0FF"/>
</svg>
