<svg width="24" height="24" viewBox="0 0 24 24" fill="none" xmlns="http://www.w3.org/2000/svg">
<path opacity="0.4" fill-rule="evenodd" clip-rule="evenodd" d="M4.00024 21.75C3.58603 21.75 3.25024 21.4142 3.25024 21L3.25024 14C3.25024 13.5858 3.58603 13.25 4.00024 13.25C4.41446 13.25 4.75024 13.5858 4.75024 14V21C4.75024 21.4142 4.41446 21.75 4.00024 21.75Z" fill="#8BB0FF"/>
<path opacity="0.4" fill-rule="evenodd" clip-rule="evenodd" d="M12.0002 21.75C11.586 21.75 11.2502 21.4142 11.2502 21L11.2502 14C11.2502 13.5858 11.586 13.25 12.0002 13.25C12.4145 13.25 12.7502 13.5858 12.7502 14L12.7502 21C12.7502 21.4142 12.4145 21.75 12.0002 21.75Z" fill="#8BB0FF"/>
<path opacity="0.4" fill-rule="evenodd" clip-rule="evenodd" d="M12.0002 6.75C11.586 6.75 11.2502 6.41421 11.2502 6L11.2502 3C11.2502 2.58579 11.586 2.25 12.0002 2.25C12.4145 2.25 12.7502 2.58579 12.7502 3L12.7502 6C12.7502 6.41421 12.4145 6.75 12.0002 6.75Z" fill="#8BB0FF"/>
<path opacity="0.4" fill-rule="evenodd" clip-rule="evenodd" d="M4.00024 10.75C3.58603 10.75 3.25024 10.4142 3.25024 10L3.25024 3C3.25024 2.58579 3.58603 2.25 4.00024 2.25C4.41446 2.25 4.75024 2.58579 4.75024 3L4.75024 10C4.75024 10.4142 4.41446 10.75 4.00024 10.75Z" fill="#8BB0FF"/>
<path opacity="0.4" fill-rule="evenodd" clip-rule="evenodd" d="M20.0002 10.75C19.586 10.75 19.2502 10.4142 19.2502 10L19.2502 3C19.2502 2.58579 19.586 2.25 20.0002 2.25C20.4145 2.25 20.7502 2.58579 20.7502 3L20.7502 10C20.7502 10.4142 20.4145 10.75 20.0002 10.75Z" fill="#8BB0FF"/>
<path opacity="0.4" fill-rule="evenodd" clip-rule="evenodd" d="M20.0002 21.75C19.586 21.75 19.2502 21.4142 19.2502 21L19.2502 18C19.2502 17.5858 19.586 17.25 20.0002 17.25C20.4145 17.25 20.7502 17.5858 20.7502 18L20.7502 21C20.7502 21.4142 20.4145 21.75 20.0002 21.75Z" fill="#8BB0FF"/>
<path d="M10.0002 7V9C10.0002 10.1046 10.8957 11 12.0002 11C13.1048 11 14.0002 10.1046 14.0002 9V7C14.0002 5.89543 13.1048 5 12.0002 5C10.8957 5 10.0002 5.89543 10.0002 7Z" fill="#8BB0FF"/>
<path d="M2.00024 11V13C2.00024 14.1046 2.89567 15 4.00024 15C5.10481 15 6.00024 14.1046 6.00024 13V11C6.00024 9.89543 5.10481 9 4.00024 9C2.89567 9 2.00024 9.89543 2.00024 11Z" fill="#8BB0FF"/>
<path d="M18.0002 15V17C18.0002 18.1046 18.8957 19 20.0002 19C21.1048 19 22.0002 18.1046 22.0002 17V15C22.0002 13.8954 21.1048 13 20.0002 13C18.8957 13 18.0002 13.8954 18.0002 15Z" fill="#8BB0FF"/>
</svg>
