<svg width="60" height="60" viewBox="0 0 60 60" fill="none" xmlns="http://www.w3.org/2000/svg">
<path opacity="0.4" fill-rule="evenodd" clip-rule="evenodd" d="M5.625 12.5C5.625 11.4645 6.46447 10.625 7.5 10.625H27.5C28.5355 10.625 29.375 11.4645 29.375 12.5C29.375 13.5355 28.5355 14.375 27.5 14.375H7.5C6.46447 14.375 5.625 13.5355 5.625 12.5Z" fill="#8BB0FF"/>
<path opacity="0.4" fill-rule="evenodd" clip-rule="evenodd" d="M5.625 30C5.625 28.9645 6.46447 28.125 7.5 28.125H30C31.0355 28.125 31.875 28.9645 31.875 30C31.875 31.0355 31.0355 31.875 30 31.875H7.5C6.46447 31.875 5.625 31.0355 5.625 30Z" fill="#8BB0FF"/>
<path opacity="0.4" fill-rule="evenodd" clip-rule="evenodd" d="M43.125 30C43.125 28.9645 43.9645 28.125 45 28.125L52.5 28.125C53.5355 28.125 54.375 28.9645 54.375 30C54.375 31.0355 53.5355 31.875 52.5 31.875L45 31.875C43.9645 31.875 43.125 31.0355 43.125 30Z" fill="#8BB0FF"/>
<path opacity="0.4" fill-rule="evenodd" clip-rule="evenodd" d="M30.6248 12.5C30.6248 11.4645 31.4642 10.625 32.4998 10.625L52.4998 10.625C53.5353 10.625 54.3748 11.4645 54.3748 12.5C54.3748 13.5355 53.5353 14.375 52.4998 14.375L32.4998 14.375C31.4642 14.375 30.6248 13.5355 30.6248 12.5Z" fill="#8BB0FF"/>
<path opacity="0.4" fill-rule="evenodd" clip-rule="evenodd" d="M28.125 47.5C28.125 46.4645 28.9645 45.625 30 45.625L52.5 45.625C53.5355 45.625 54.375 46.4645 54.375 47.5C54.375 48.5355 53.5355 49.375 52.5 49.375L30 49.375C28.9645 49.375 28.125 48.5355 28.125 47.5Z" fill="#8BB0FF"/>
<path opacity="0.4" fill-rule="evenodd" clip-rule="evenodd" d="M5.625 47.5C5.625 46.4645 6.46447 45.625 7.5 45.625H15C16.0355 45.625 16.875 46.4645 16.875 47.5C16.875 48.5355 16.0355 49.375 15 49.375H7.5C6.46447 49.375 5.625 48.5355 5.625 47.5Z" fill="#8BB0FF"/>
<circle cx="17.5002" cy="47.5" r="5" fill="#8BB0FF"/>
<circle cx="42.5" cy="30" r="5" fill="#8BB0FF"/>
<circle cx="29.9998" cy="12.5" r="5" fill="#8BB0FF"/>
</svg>
