<svg width="29" height="29" viewBox="0 0 29 29" fill="none" xmlns="http://www.w3.org/2000/svg">
<path d="M11.907 0.256876C9.90541 0.626751 7.96794 1.41481 6.30269 2.55664L5.61415 3.00694L7.55166 5.3389C8.60846 6.60942 9.53715 7.65477 9.58518 7.63869C9.64925 7.63869 10.1776 7.39744 10.7701 7.10796C11.3625 6.81847 12.2913 6.49683 12.8196 6.40033L13.7804 6.20735V0.015625L13.4281 0.0317036C13.22 0.0317036 12.5474 0.14429 11.907 0.256876Z" fill="white" fill-opacity="0.85"/>
<path d="M15.0613 6.2078L16.022 6.40078C16.5504 6.49729 17.4791 6.81893 18.0716 7.10841C18.664 7.3979 19.1924 7.63915 19.2405 7.63915C19.3045 7.65522 20.2172 6.60987 21.29 5.33935L23.2275 3.02351L22.4109 2.46062C20.6175 1.25445 18.2477 0.385993 15.99 0.112586L15.0613 0V6.2078Z" fill="white" fill-opacity="0.85"/>
<path d="M3.74091 4.7927C2.23577 6.56173 1.25902 8.26648 0.666574 10.2124C0.474428 10.8236 0.346329 11.3382 0.362341 11.3543C0.506451 11.4829 6.27084 12.3997 6.41495 12.3192C6.49499 12.271 6.57506 12.1262 6.57506 12.0297C6.57506 11.6116 7.53578 9.82645 8.09621 9.19925L8.68866 8.53989L6.75119 6.20793C5.67839 4.92133 4.73368 3.87598 4.66961 3.87598C4.58957 3.87598 4.17325 4.29413 3.74091 4.7927Z" fill="white" fill-opacity="0.85"/>
<path d="M22.1066 6.19185L20.1691 8.52381L20.8576 9.37614C21.4982 10.1642 21.8504 10.8236 22.2667 11.9654L22.4269 12.4157L23.3555 11.9011C23.8519 11.6116 24.4444 11.2578 24.6685 11.1291C25.0368 10.9362 25.277 10.9362 26.7982 11.2256C27.7429 11.4025 28.5115 11.4829 28.5115 11.4186C28.5115 11.3543 28.3514 10.8075 28.1752 10.2124C27.7909 8.958 27.1024 7.52669 26.3819 6.44918C25.7414 5.48422 24.3483 3.87598 24.1722 3.87598C24.1081 3.87598 23.1634 4.92133 22.1066 6.19185Z" fill="white" fill-opacity="0.85"/>
<path d="M23.9161 12.8335L22.5871 13.5894V14.7473C22.5871 15.471 22.459 16.3073 22.2509 16.9828C22.0747 17.5778 21.9787 18.1246 22.0587 18.189C22.475 18.5749 27.0866 21.0998 27.2146 21.0195C27.5028 20.8264 28.3515 18.3819 28.5917 16.9828C28.8479 15.4389 28.9119 13.2516 28.6877 12.8979C28.5757 12.721 26.0457 12.1098 25.3892 12.0938C25.3092 12.0938 24.6367 12.4315 23.9161 12.8335Z" fill="white" fill-opacity="0.85"/>
<path d="M0.0740776 13.1553C-0.198129 14.5866 0.31426 18.1248 1.03481 19.8295L1.291 20.4407L2.78013 20.4246C4.94178 20.3924 4.9898 20.3763 5.95055 19.0093L6.78316 17.8031L6.57502 17.0794C6.46293 16.6774 6.31881 15.7285 6.27079 14.9726L6.1747 13.6056L3.77289 13.1875C-0.246166 12.4638 0.202175 12.4638 0.0740776 13.1553Z" fill="white" fill-opacity="0.85"/>
<path d="M6.51074 20.103L5.61402 21.3735L3.86871 21.4378C2.90798 21.47 2.05934 21.5343 2.0113 21.5986C1.85117 21.7595 3.03608 23.432 4.02884 24.4774C5.06963 25.5549 6.65481 26.745 7.88777 27.3722C8.40014 27.6295 8.83247 27.8386 8.88054 27.8386C8.91255 27.8386 9.21678 27.0988 9.53702 26.1821C9.87326 25.2815 10.3376 23.9788 10.5938 23.3034L11.0422 22.065L10.3056 21.6469C9.39291 21.1001 8.41615 20.2316 7.83971 19.4275L7.40742 18.8164L6.51074 20.103Z" fill="white" fill-opacity="0.85"/>
<path d="M20.4573 20.0389C20.025 20.5213 19.2564 21.1807 18.744 21.5024L17.7993 22.0813L18.4237 23.8021C19.5606 26.9704 19.8328 27.694 19.9289 27.7906C20.041 27.9192 22.0265 26.8095 23.0192 26.0536C24.028 25.2978 25.389 23.9147 26.0936 22.9337L26.5899 22.2261L25.4371 21.5506C24.7966 21.1807 23.6117 20.4892 22.7951 20.0067C21.9944 19.5403 21.3059 19.1543 21.2739 19.1704C21.2579 19.1704 20.8736 19.5725 20.4573 20.0389Z" fill="white" fill-opacity="0.85"/>
<path d="M11.0745 25.3936C10.5301 26.9375 10.0978 28.2241 10.1298 28.2562C10.1618 28.2884 10.6582 28.4331 11.2346 28.594C12.6597 28.9799 16.1824 28.9799 17.6074 28.594C18.1839 28.4331 18.6643 28.2884 18.6963 28.2562C18.7283 28.2241 18.296 26.9536 17.7516 25.4257L16.7428 22.6435L12.0833 22.6113L11.0745 25.3936Z" fill="white" fill-opacity="0.85"/>
<path d="M11.907 0.273477C9.90541 0.643352 7.96794 1.43138 6.30269 2.57324L5.61415 3.02354L7.55166 5.3555C8.60846 6.62598 9.53715 7.67133 9.58518 7.65525C9.64925 7.65525 10.1776 7.41404 10.7701 7.12456C11.3625 6.83507 12.2913 6.51343 12.8196 6.41692L13.7804 6.22395V0.0322266L13.4281 0.0483044C13.22 0.0483044 12.5474 0.160891 11.907 0.273477Z" fill="white" fill-opacity="0.85"/>
<path d="M15.0613 6.22343L16.022 6.4164C16.5504 6.51291 17.4791 6.83455 18.0716 7.12404C18.664 7.41352 19.1924 7.65473 19.2405 7.65473C19.3045 7.67081 20.2172 6.62546 21.29 5.35497L23.2275 3.0391L22.4109 2.4762C20.6175 1.27003 18.2477 0.401618 15.99 0.128212L15.0613 0.015625V6.22343Z" fill="white" fill-opacity="0.85"/>
<path d="M3.74091 4.80829C2.23577 6.57735 1.25902 8.28206 0.666574 10.2281C0.474428 10.8392 0.346329 11.3538 0.362341 11.3699C0.506451 11.4986 6.27084 12.4152 6.41495 12.3348C6.49499 12.2866 6.57506 12.1418 6.57506 12.0454C6.57506 11.6272 7.53578 9.84207 8.09621 9.21487L8.68866 8.55547L6.75119 6.22356C5.67839 4.93695 4.73368 3.8916 4.66961 3.8916C4.58957 3.8916 4.17325 4.30975 3.74091 4.80829Z" fill="white" fill-opacity="0.85"/>
<path d="M23.9161 12.8501L22.5871 13.606V14.7639C22.5871 15.4877 22.459 16.3239 22.2509 16.9994C22.0747 17.5944 21.9787 18.1413 22.0587 18.2056C22.475 18.5916 27.0866 21.1165 27.2146 21.0361C27.5028 20.8431 28.3515 18.3985 28.5917 16.9994C28.8479 15.4555 28.9119 13.2683 28.6877 12.9145C28.5757 12.7376 26.0457 12.1264 25.3892 12.1104C25.3092 12.1104 24.6367 12.4481 23.9161 12.8501Z" fill="white" fill-opacity="0.85"/>
<path d="M0.0740776 13.1719C-0.198129 14.6033 0.31426 18.1414 1.03481 19.8461L1.291 20.4572L2.78013 20.4411C4.94178 20.409 4.9898 20.3929 5.95055 19.0259L6.78316 17.8197L6.57502 17.096C6.46293 16.694 6.31881 15.7451 6.27079 14.9892L6.1747 13.6222L3.77289 13.2041C-0.246166 12.4804 0.202175 12.4804 0.0740776 13.1719Z" fill="white" fill-opacity="0.85"/>
<path d="M6.51074 20.1186L5.61402 21.3892L3.86871 21.4535C2.90798 21.4856 2.05934 21.55 2.0113 21.6143C1.85117 21.7751 3.03608 23.4477 4.02884 24.493C5.06963 25.5706 6.65481 26.7607 7.88777 27.3879C8.40014 27.6452 8.83247 27.8542 8.88054 27.8542C8.91255 27.8542 9.21678 27.1145 9.53702 26.1978C9.87326 25.2972 10.3376 23.9945 10.5938 23.319L11.0422 22.0807L10.3056 21.6625C9.39291 21.1158 8.41615 20.2473 7.83971 19.4432L7.40742 18.832L6.51074 20.1186Z" fill="white" fill-opacity="0.85"/>
<path d="M20.4573 20.0545C20.025 20.5369 19.2564 21.1963 18.744 21.5179L17.7993 22.0969L18.4237 23.8177C19.5606 26.986 19.8328 27.7097 19.9289 27.8062C20.041 27.9348 22.0265 26.8251 23.0192 26.0693C24.028 25.3134 25.389 23.9303 26.0936 22.9493L26.5899 22.2417L25.4371 21.5662C24.7966 21.1963 23.6117 20.5048 22.7951 20.0223C21.9944 19.5559 21.3059 19.17 21.2739 19.186C21.2579 19.186 20.8736 19.5881 20.4573 20.0545Z" fill="white" fill-opacity="0.85"/>
<path d="M11.0745 25.4102C10.5301 26.9541 10.0978 28.2407 10.1298 28.2728C10.1618 28.305 10.6582 28.4497 11.2346 28.6106C12.6597 28.9966 16.1824 28.9966 17.6074 28.6106C18.1839 28.4497 18.6643 28.305 18.6963 28.2728C18.7283 28.2407 18.296 26.9702 17.7516 25.4423L16.7428 22.6601L12.0833 22.6279L11.0745 25.4102Z" fill="white" fill-opacity="0.85"/>
</svg>
