<svg width="60" height="60" viewBox="0 0 60 60" fill="none" xmlns="http://www.w3.org/2000/svg">
<path opacity="0.4" d="M5.00244 36.446V21.4266C5.00244 19.337 6.07245 17.4268 7.76637 16.4924L12.891 13.6653C14.2795 12.8993 15.8107 12.5005 17.3631 12.5005H21.5661C24.6685 12.5005 27.5608 14.0856 29.4372 16.7279L24.5887 23.4147C23.401 25.0528 23.5196 27.4142 24.864 28.8976C26.3212 30.5053 28.6837 30.5053 30.1409 28.8976L33.6789 24.994L39.4061 36.5787C40.973 39.7482 39.4038 43.6966 36.2293 44.5723L27.4047 47.0063C24.2243 47.8836 20.8711 47.5871 17.8579 46.1623L8.03284 41.5165C6.19443 40.6472 5.00244 38.6528 5.00244 36.446Z" fill="#8BB0FF"/>
<path d="M55.0009 37.067V21.4266C55.0009 19.337 53.9309 17.4268 52.237 16.4924L47.1124 13.6653C45.7238 12.8993 44.1927 12.5005 42.6402 12.5005H37.3072C34.2693 12.5005 31.3962 14.0241 29.4985 16.6413L24.5872 23.4147C23.3995 25.0528 23.518 27.4142 24.8624 28.8976C26.3196 30.5053 28.6822 30.5053 30.1394 28.8976L33.6774 24.994L39.4045 36.5787C40.4017 38.5958 40.1288 40.9284 38.9802 42.5836H50.0009C52.7623 42.5836 55.0009 40.1137 55.0009 37.067Z" fill="#8BB0FF"/>
</svg>
