<svg width="60" height="60" viewBox="0 0 60 60" fill="none" xmlns="http://www.w3.org/2000/svg">
<path opacity="0.4" d="M32.6515 5H27.3485C24.4197 5 22.0454 7.23858 22.0454 10C22.0454 13.16 18.6643 15.1691 15.8889 13.6582L15.607 13.5048C13.0706 12.1241 9.82728 12.9435 8.36289 15.3349L5.71136 19.665C4.24697 22.0565 5.11601 25.1145 7.65241 26.4952C10.4292 28.0067 10.4292 31.9933 7.65241 33.5048C5.116 34.8855 4.24696 37.9435 5.71136 40.335L8.36288 44.6651C9.82728 47.0565 13.0706 47.8759 15.607 46.4952L15.8889 46.3418C18.6643 44.8309 22.0454 46.84 22.0454 50C22.0454 52.7614 24.4197 55 27.3485 55H32.6515C35.5803 55 37.9546 52.7614 37.9546 50C37.9546 46.8399 41.3357 44.8309 44.1111 46.3417L44.393 46.4952C46.9294 47.8759 50.1727 47.0565 51.6371 44.665L54.2886 40.3349C55.753 37.9435 54.884 34.8855 52.3476 33.5048C49.5708 31.9932 49.5708 28.0068 52.3476 26.4952C54.884 25.1145 55.753 22.0565 54.2886 19.6651L51.6371 15.335C50.1727 12.9435 46.9294 12.1241 44.393 13.5048L44.1111 13.6583C41.3357 15.1691 37.9546 13.1601 37.9546 10C37.9546 7.23858 35.5803 5 32.6515 5Z" fill="#8BB0FF"/>
<path d="M39.375 30C39.375 35.1777 35.1777 39.375 30 39.375C24.8223 39.375 20.625 35.1777 20.625 30C20.625 24.8223 24.8223 20.625 30 20.625C35.1777 20.625 39.375 24.8223 39.375 30Z" fill="#8BB0FF"/>
</svg>
