<svg width="60" height="60" viewBox="0 0 60 60" fill="none" xmlns="http://www.w3.org/2000/svg">
<path opacity="0.4" d="M25.9376 6.80524L13.443 12.3584C9.82898 13.9646 7.44401 17.5617 7.67398 21.51C8.57306 36.9455 13.0932 43.7409 24.8385 51.6926C27.95 53.7991 32.0514 53.8042 35.1606 51.6943C46.942 43.6993 51.3004 36.8079 52.2785 21.5634C52.5335 17.5891 50.1446 13.9538 46.5054 12.3364L34.0604 6.80524C31.4747 5.65606 28.5232 5.65607 25.9376 6.80524Z" fill="#8BB0FF"/>
<path fill-rule="evenodd" clip-rule="evenodd" d="M38.7348 23.5889C39.5141 24.2708 39.5931 25.4554 38.9112 26.2347L31.7364 34.4345C30.1947 36.1964 27.539 36.4324 25.7108 34.9698L21.3288 31.4642C20.5201 30.8173 20.389 29.6373 21.0359 28.8287C21.6828 28.0201 22.8628 27.889 23.6714 28.5359L28.0534 32.0415C28.3146 32.2505 28.694 32.2168 28.9142 31.9651L36.089 23.7653C36.7709 22.986 37.9554 22.907 38.7348 23.5889Z" fill="#8BB0FF"/>
</svg>
