<svg width="60" height="60" viewBox="0 0 60 60" fill="none" xmlns="http://www.w3.org/2000/svg">
<path opacity="0.4" d="M9.99756 30C9.99756 24.4772 14.4747 20 19.9976 20H39.9976C45.5204 20 49.9976 24.4772 49.9976 30V45C49.9976 50.5228 45.5204 55 39.9976 55H19.9976C14.4747 55 9.99756 50.5228 9.99756 45V30Z" fill="#8BB0FF"/>
<path fill-rule="evenodd" clip-rule="evenodd" d="M29.9976 33.125C31.0331 33.125 31.8726 33.9645 31.8726 35V40C31.8726 41.0355 31.0331 41.875 29.9976 41.875C28.962 41.875 28.1226 41.0355 28.1226 40V35C28.1226 33.9645 28.962 33.125 29.9976 33.125Z" fill="#8BB0FF"/>
<path d="M29.9989 3.125C36.5573 3.125 41.8739 8.44164 41.8739 15V20.1777C41.2664 20.0625 40.6399 20 39.9989 20H38.1239V15C38.1239 10.5127 34.4862 6.875 29.9989 6.875C26.994 6.87506 24.3675 8.50523 22.9598 10.9385C22.4413 11.8348 21.2946 12.1414 20.3983 11.623C19.502 11.1046 19.1955 9.95784 19.7137 9.06152C21.7641 5.51701 25.6012 3.12506 29.9989 3.125Z" fill="#8BB0FF"/>
</svg>
