<svg width="30" height="30" viewBox="0 0 30 30" fill="none" xmlns="http://www.w3.org/2000/svg">
<mask id="mask0_112_1176" style="mask-type:luminance" maskUnits="userSpaceOnUse" x="0" y="0" width="30" height="30">
<path d="M0 0H30V30H0V0Z" fill="white"/>
</mask>
<g mask="url(#mask0_112_1176)">
<path fill-rule="evenodd" clip-rule="evenodd" d="M20.8545 12C20.9445 12.9435 21 13.938 21 15C21 15.3978 20.8419 15.7794 20.5606 16.0606C20.2794 16.3419 19.8978 16.5 19.5 16.5C19.1022 16.5 18.7206 16.3419 18.4394 16.0606C18.1581 15.7794 18 15.3978 18 15C18 13.9305 17.9415 12.933 17.8425 12H12.138C11.9295 13.9945 11.9275 16.0051 12.132 18H15C15.3978 18 15.7794 18.1581 16.0606 18.4394C16.3419 18.7206 16.5 19.1022 16.5 19.5C16.5 19.8978 16.3419 20.2794 16.0606 20.5606C15.7794 20.8419 15.3978 21 15 21H12.624C13.3275 24.12 14.427 26.115 15.0015 27C15.0015 27 16.185 27.0195 16.3905 27.003C16.7867 26.9774 17.1769 27.1085 17.4772 27.368C17.7775 27.6276 17.9637 27.9948 17.9955 28.3905C18.0244 28.7871 17.8947 29.1789 17.6348 29.4799C17.3748 29.7808 17.0061 29.9664 16.6095 29.9955C16.4685 30.006 15 30 15 30C6.729 30 0 23.271 0 15C0 6.7275 6.729 0 15 0C23.271 0 30 6.7275 30 15C30 15.5685 29.946 16.1235 29.8815 16.674C29.8219 17.058 29.6159 17.4039 29.3066 17.6391C28.9973 17.8742 28.6087 17.9804 28.2229 17.9351C27.837 17.8898 27.4836 17.6967 27.2372 17.3964C26.9906 17.0961 26.8701 16.7118 26.901 16.3245C26.9535 15.888 27 15.45 27 15C27 13.962 26.853 12.96 26.6055 12H20.8545ZM14.982 3.054C14.403 3.963 13.332 5.9505 12.636 9H17.3415C16.6425 5.9505 15.564 3.963 14.982 3.054ZM3.3945 18H9.123C9.036 17.0565 8.9805 16.065 8.9805 15.006C8.98146 14.0023 9.02951 12.9992 9.1245 12H3.3945C3.1455 12.96 3 13.962 3 15C3.00374 16.0127 3.13629 17.0208 3.3945 18ZM4.623 21C6.10425 23.5555 8.4728 25.4778 11.2785 26.4015C10.4969 24.6739 9.91902 22.8612 9.5565 21H4.623ZM9.5595 9C10.011 6.7485 10.662 4.9455 11.2845 3.5955C8.47602 4.51848 6.10503 6.44207 4.623 9H9.5595ZM20.418 9H25.3755C23.8873 6.43002 21.5022 4.50048 18.678 3.582C19.4691 5.31326 20.0532 7.13184 20.418 9Z" fill="#1D65FF"/>
<path d="M22.8344 28.4181L19.0093 20.0026C18.7225 19.3717 19.3715 18.7228 20.0024 19.0095L28.4177 22.8348C28.9921 23.0958 29.0071 23.9062 28.4428 24.1884L25.8299 25.4947C25.6847 25.5673 25.5671 25.6851 25.4945 25.8301L24.188 28.4431C23.9059 29.0074 23.0956 28.9924 22.8344 28.4181Z" fill="#1D65FF"/>
</g>
</svg>
